<svg width="11" height="11" viewBox="0 0 11 11" fill="none" xmlns="http://www.w3.org/2000/svg">
<path d="M8.70988 1.42666C9.19794 1.42666 9.61091 1.83963 9.61091 2.32768V9.27306C9.61091 9.76111 9.19794 10.1741 8.70988 10.1741H1.7645C1.27645 10.1741 0.863481 9.76111 0.863481 9.27306V2.29014C0.863481 1.80208 1.27645 1.38911 1.7645 1.38911L8.70988 1.42666ZM8.70988 0.525635H1.7645C0.788393 0.525635 0 1.31403 0 2.29014V9.23552C0 10.2116 0.788393 11 1.7645 11H8.70988C9.68599 11 10.4744 10.2116 10.4744 9.23552V2.29014C10.4744 1.31403 9.68599 0.525635 8.70988 0.525635Z" fill="white"/>
<path d="M2.62889 0.112793H1.95312V1.8773H2.62889V0.112793Z" fill="white"/>
<path d="M2.55467 0.225256V1.80204H2.10416V0.225256H2.55467ZM2.74239 0H1.87891V1.98976H2.74239V0Z" fill="white"/>
<path d="M8.48436 0.112793H7.80859V1.8773H8.48436V0.112793Z" fill="white"/>
<path d="M8.41014 0.225256V1.80204H7.95963V0.225256H8.41014ZM8.59785 0H7.73438V1.98976H8.59785V0Z" fill="white"/>
<path d="M8.59751 6.75085V6H1.83984V6.75085H8.59751Z" fill="white"/>
<path d="M8.59751 8.50183V7.75098H1.83984V8.50183H8.59751Z" fill="white"/>
<path d="M10.5 3.41626H0V4.27974H10.5V3.41626Z" fill="white"/>
</svg>
