<svg width="11" height="11" viewBox="0 0 11 11" fill="none" xmlns="http://www.w3.org/2000/svg">
<path d="M8.70988 0.901022C9.19794 0.901022 9.61091 1.31399 9.61091 1.80204V8.74743C9.61091 9.23548 9.19794 9.64845 8.70988 9.64845H1.7645C1.27645 9.64845 0.863481 9.23548 0.863481 8.74743V1.7645C0.863481 1.27645 1.27645 0.86348 1.7645 0.86348L8.70988 0.901022ZM8.70988 0H1.7645C0.788393 0 0 0.788395 0 1.7645V8.70988C0 9.68599 0.788393 10.4744 1.7645 10.4744H8.70988C9.68599 10.4744 10.4744 9.68599 10.4744 8.70988V1.7645C10.4744 0.788395 9.68599 0 8.70988 0Z" fill="white"/>
<path d="M5.51953 5.18091V6.04439H7.92226V5.18091H5.51953Z" fill="white"/>
<path d="M5.51883 6.08192L6.11952 5.48124L3.97959 3.34131L3.37891 3.94199L5.51883 6.08192Z" fill="white"/>
</svg>
