<svg width="16" height="17" viewBox="0 0 16 17" fill="none" xmlns="http://www.w3.org/2000/svg">
<path d="M4.7198 1.89438C4.46945 1.89438 4.22935 1.99384 4.05232 2.17086C3.87529 2.34789 3.77584 2.58799 3.77584 2.83834C3.77584 3.0887 3.87529 3.3288 4.05232 3.50583C4.22935 3.68285 4.46945 3.78231 4.7198 3.78231C4.97016 3.78231 5.21026 3.68285 5.38728 3.50583C5.56431 3.3288 5.66376 3.0887 5.66376 2.83834C5.66376 2.58799 5.56431 2.34789 5.38728 2.17086C5.21026 1.99384 4.97016 1.89438 4.7198 1.89438ZM2.04839 1.89438C2.24342 1.34166 2.60508 0.863045 3.08354 0.524499C3.562 0.185953 4.13368 0.00415039 4.7198 0.00415039C5.30592 0.00415039 5.87761 0.185953 6.35606 0.524499C6.83452 0.863045 7.19619 1.34166 7.39121 1.89438H14.1594C14.4098 1.89438 14.6499 1.99384 14.8269 2.17086C15.0039 2.34789 15.1034 2.58799 15.1034 2.83834C15.1034 3.0887 15.0039 3.3288 14.8269 3.50583C14.6499 3.68285 14.4098 3.78231 14.1594 3.78231H7.39121C7.19619 4.33503 6.83452 4.81364 6.35606 5.15219C5.87761 5.49074 5.30592 5.67254 4.7198 5.67254C4.13368 5.67254 3.562 5.49074 3.08354 5.15219C2.60508 4.81364 2.24342 4.33503 2.04839 3.78231H0.94396C0.693607 3.78231 0.453507 3.68285 0.27648 3.50583C0.0994529 3.3288 0 3.0887 0 2.83834C0 2.58799 0.0994529 2.34789 0.27648 2.17086C0.453507 1.99384 0.693607 1.89438 0.94396 1.89438H2.04839ZM10.3836 7.55815C10.1332 7.55815 9.89311 7.6576 9.71608 7.83463C9.53906 8.01165 9.4396 8.25175 9.4396 8.50211C9.4396 8.75246 9.53906 8.99256 9.71608 9.16959C9.89311 9.34661 10.1332 9.44607 10.3836 9.44607C10.6339 9.44607 10.874 9.34661 11.051 9.16959C11.2281 8.99256 11.3275 8.75246 11.3275 8.50211C11.3275 8.25175 11.2281 8.01165 11.051 7.83463C10.874 7.6576 10.6339 7.55815 10.3836 7.55815ZM7.71216 7.55815C7.90718 7.00543 8.26885 6.52681 8.7473 6.18826C9.22576 5.84972 9.79745 5.66791 10.3836 5.66791C10.9697 5.66791 11.5414 5.84972 12.0198 6.18826C12.4983 6.52681 12.8599 7.00543 13.055 7.55815H14.1594C14.4098 7.55815 14.6499 7.6576 14.8269 7.83463C15.0039 8.01165 15.1034 8.25175 15.1034 8.50211C15.1034 8.75246 15.0039 8.99256 14.8269 9.16959C14.6499 9.34661 14.4098 9.44607 14.1594 9.44607H13.055C12.8599 9.99879 12.4983 10.4774 12.0198 10.816C11.5414 11.1545 10.9697 11.3363 10.3836 11.3363C9.79745 11.3363 9.22576 11.1545 8.7473 10.816C8.26885 10.4774 7.90718 9.99879 7.71216 9.44607H0.94396C0.693607 9.44607 0.453507 9.34661 0.27648 9.16959C0.0994529 8.99256 0 8.75246 0 8.50211C0 8.25175 0.0994529 8.01165 0.27648 7.83463C0.453507 7.6576 0.693607 7.55815 0.94396 7.55815H7.71216ZM4.7198 13.2219C4.46945 13.2219 4.22935 13.3214 4.05232 13.4984C3.87529 13.6754 3.77584 13.9155 3.77584 14.1659C3.77584 14.4162 3.87529 14.6563 4.05232 14.8334C4.22935 15.0104 4.46945 15.1098 4.7198 15.1098C4.97016 15.1098 5.21026 15.0104 5.38728 14.8334C5.56431 14.6563 5.66376 14.4162 5.66376 14.1659C5.66376 13.9155 5.56431 13.6754 5.38728 13.4984C5.21026 13.3214 4.97016 13.2219 4.7198 13.2219ZM2.04839 13.2219C2.24342 12.6692 2.60508 12.1906 3.08354 11.852C3.562 11.5135 4.13368 11.3317 4.7198 11.3317C5.30592 11.3317 5.87761 11.5135 6.35606 11.852C6.83452 12.1906 7.19619 12.6692 7.39121 13.2219H14.1594C14.4098 13.2219 14.6499 13.3214 14.8269 13.4984C15.0039 13.6754 15.1034 13.9155 15.1034 14.1659C15.1034 14.4162 15.0039 14.6563 14.8269 14.8334C14.6499 15.0104 14.4098 15.1098 14.1594 15.1098H7.39121C7.19619 15.6626 6.83452 16.1412 6.35606 16.4797C5.87761 16.8183 5.30592 17.0001 4.7198 17.0001C4.13368 17.0001 3.562 16.8183 3.08354 16.4797C2.60508 16.1412 2.24342 15.6626 2.04839 15.1098H0.94396C0.693607 15.1098 0.453507 15.0104 0.27648 14.8334C0.0994529 14.6563 0 14.4162 0 14.1659C0 13.9155 0.0994529 13.6754 0.27648 13.4984C0.453507 13.3214 0.693607 13.2219 0.94396 13.2219H2.04839Z" fill="#6195CF"/>
</svg>
