<svg width="11" height="11" viewBox="0 0 11 11" fill="none" xmlns="http://www.w3.org/2000/svg">
<path d="M8.70988 1.22915C9.19794 1.22915 9.61091 1.64212 9.61091 2.13017V9.07555C9.61091 9.5636 9.19794 9.97657 8.70988 9.97657H1.7645C1.27645 9.97657 0.86348 9.5636 0.86348 9.07555V2.09263C0.86348 1.60457 1.27645 1.1916 1.7645 1.1916L8.70988 1.22915ZM8.70988 0.328125H1.7645C0.788395 0.328125 0 1.11652 0 2.09263V9.03801C0 10.0141 0.788395 10.8025 1.7645 10.8025H8.70988C9.68599 10.8025 10.4744 10.0141 10.4744 9.03801V2.09263C10.5119 1.11652 9.68599 0.328125 8.70988 0.328125Z" fill="white"/>
<path d="M9.1984 10.3895H8.33492V9.67621C8.33492 8.02434 6.94584 6.71035 5.25643 6.71035C3.56701 6.71035 2.17793 8.06188 2.17793 9.67621V10.3895H1.31445V9.67621C1.31445 7.53629 3.07896 5.80933 5.25643 5.80933C7.4339 5.80933 9.1984 7.53629 9.1984 9.67621V10.3895Z" fill="white"/>
<path d="M6.64534 5.05843H3.86719V3.66935C3.86719 2.9185 4.50541 2.28027 5.25626 2.28027C6.00712 2.28027 6.64534 2.9185 6.64534 3.66935V5.05843ZM4.73067 4.1574H5.74432V3.63181C5.74432 3.33147 5.51906 3.10621 5.21872 3.10621C4.91838 3.10621 4.69312 3.33147 4.69312 3.63181V4.1574H4.73067Z" fill="white"/>
</svg>
