<svg width="11" height="11" viewBox="0 0 11 11" fill="none" xmlns="http://www.w3.org/2000/svg">
<path d="M8.74743 0.901022C9.23548 0.901022 9.64845 1.31399 9.64845 1.80204V8.74743C9.64845 9.23548 9.23548 9.64845 8.74743 9.64845H1.7645C1.27645 9.64845 0.863479 9.23548 0.863479 8.74743V1.7645C0.863479 1.27645 1.27645 0.86348 1.7645 0.86348L8.74743 0.901022ZM8.74743 0H1.7645C0.788395 0 0 0.788395 0 1.7645V8.70988C0 9.68599 0.788395 10.4744 1.7645 10.4744H8.74743C9.72353 10.4744 10.5119 9.68599 10.5119 8.70988V1.7645C10.5119 0.788395 9.72353 0 8.74743 0Z" fill="white"/>
<path d="M7.13205 8.33439H6.26857L5.25492 4.80538L4.24127 8.33439H3.41533L1.95117 3.37876L2.77711 3.11597L3.8283 6.64497L4.84195 3.11597H5.66789L6.71908 6.64497L7.73273 3.11597L8.55867 3.37876L7.13205 8.33439Z" fill="white"/>
<path d="M8.97185 4.39258H1.76367V5.25606H8.97185V4.39258Z" fill="white"/>
</svg>
