<svg width="17" height="14" viewBox="0 0 17 14" fill="none" xmlns="http://www.w3.org/2000/svg">
<path d="M14.8838 2.15385H12.3652L11.7652 0.407693C11.7238 0.288208 11.6478 0.184927 11.5477 0.111957C11.4476 0.0389873 11.3283 -0.000112042 11.206 2.41159e-07H5.52449C5.27449 2.41159e-07 5.05042 0.163462 4.96709 0.407693L4.36523 2.15385H1.84672C1.0282 2.15385 0.365234 2.84231 0.365234 3.69231V12.4615C0.365234 13.3115 1.0282 14 1.84672 14H14.8838C15.7023 14 16.3652 13.3115 16.3652 12.4615V3.69231C16.3652 2.84231 15.7023 2.15385 14.8838 2.15385ZM15.0319 12.4615C15.0319 12.5462 14.9652 12.6154 14.8838 12.6154H1.84672C1.76523 12.6154 1.69857 12.5462 1.69857 12.4615V3.69231C1.69857 3.60769 1.76523 3.53846 1.84672 3.53846H5.30412L5.62079 2.61923L6.04486 1.38462H10.6838L11.1078 2.61923L11.4245 3.53846H14.8838C14.9652 3.53846 15.0319 3.60769 15.0319 3.69231V12.4615ZM8.36523 4.76923C6.7282 4.76923 5.40227 6.14615 5.40227 7.84615C5.40227 9.54615 6.7282 10.9231 8.36523 10.9231C10.0023 10.9231 11.3282 9.54615 11.3282 7.84615C11.3282 6.14615 10.0023 4.76923 8.36523 4.76923ZM8.36523 9.69231C7.38375 9.69231 6.58746 8.86539 6.58746 7.84615C6.58746 6.82692 7.38375 6 8.36523 6C9.34672 6 10.143 6.82692 10.143 7.84615C10.143 8.86539 9.34672 9.69231 8.36523 9.69231Z" fill="#545454"/>
</svg>
