<svg width="14" height="14" viewBox="0 0 14 14" fill="none" xmlns="http://www.w3.org/2000/svg">
<path d="M12.449 6.59868C12.4512 7.40912 12.2618 8.2086 11.8964 8.932C11.4632 9.79885 10.7972 10.528 9.97294 11.0377C9.14872 11.5474 8.19887 11.8176 7.22978 11.8179C6.41934 11.8201 5.61986 11.6307 4.89646 11.2653L1.39648 12.432L2.56314 8.932C2.19775 8.2086 2.0084 7.40912 2.01052 6.59868C2.01089 5.62959 2.28107 4.67974 2.79078 3.85552C3.30049 3.03131 4.02961 2.36528 4.89646 1.93204C5.61986 1.56665 6.41934 1.3773 7.22978 1.37941H7.5368C8.81665 1.45002 10.0255 1.99023 10.9319 2.8966C11.8382 3.80297 12.3784 5.01181 12.449 6.29166V6.59868Z" stroke="#6195CF" stroke-width="1.18966" stroke-linecap="round" stroke-linejoin="round"/>
</svg>
