<svg width="15" height="13" viewBox="0 0 15 13" fill="none" xmlns="http://www.w3.org/2000/svg">
<path d="M12.8455 1.59518C12.5318 1.28141 12.1595 1.03251 11.7496 0.862692C11.3398 0.692874 10.9005 0.605469 10.4569 0.605469C10.0132 0.605469 9.57396 0.692874 9.16412 0.862692C8.75428 1.03251 8.38191 1.28141 8.06829 1.59518L7.41742 2.24605L6.76655 1.59518C6.13306 0.961689 5.27386 0.605797 4.37797 0.605797C3.48207 0.605797 2.62287 0.961689 1.98938 1.59518C1.35589 2.22867 1 3.08787 1 3.98376C1 4.87965 1.35589 5.73885 1.98938 6.37234L2.64026 7.02322L7.41742 11.8004L12.1946 7.02322L12.8455 6.37234C13.1592 6.05872 13.4081 5.68636 13.5779 5.27652C13.7478 4.86668 13.8352 4.42739 13.8352 3.98376C13.8352 3.54013 13.7478 3.10085 13.5779 2.69101C13.4081 2.28117 13.1592 1.9088 12.8455 1.59518Z" stroke="#6195CF" stroke-width="1.18966" stroke-linecap="round" stroke-linejoin="round"/>
</svg>
