<svg width="15" height="13" viewBox="0 0 15 13" fill="none" xmlns="http://www.w3.org/2000/svg">
<path d="M12.8455 1.98971C12.5318 1.67594 12.1595 1.42704 11.7496 1.25722C11.3398 1.08741 10.9005 1 10.4569 1C10.0132 1 9.57396 1.08741 9.16412 1.25722C8.75428 1.42704 8.38191 1.67594 8.06829 1.98971L7.41742 2.64058L6.76655 1.98971C6.13306 1.35622 5.27386 1.00033 4.37797 1.00033C3.48207 1.00033 2.62287 1.35622 1.98938 1.98971C1.35589 2.6232 1 3.4824 1 4.37829C1 5.27419 1.35589 6.13338 1.98938 6.76688L2.64026 7.41775L7.41742 12.1949L12.1946 7.41775L12.8455 6.76688C13.1592 6.45325 13.4081 6.08089 13.5779 5.67105C13.7478 5.26121 13.8352 4.82192 13.8352 4.37829C13.8352 3.93466 13.7478 3.49538 13.5779 3.08554C13.4081 2.6757 13.1592 2.30333 12.8455 1.98971V1.98971Z" fill="white" stroke="white" stroke-width="1.18966" stroke-linecap="round" stroke-linejoin="round"/>
</svg>
