<svg width="18" height="20" viewBox="0 0 18 20" fill="none" xmlns="http://www.w3.org/2000/svg">
<path opacity="0.8" d="M15.787 1.99074C16.3426 1.99074 16.8133 2.18364 17.1991 2.56944C17.5849 2.95525 17.7778 3.42593 17.7778 3.98148V17.7778C17.7778 18.3333 17.5849 18.804 17.1991 19.1898C16.8133 19.5756 16.3426 19.7685 15.787 19.7685H1.99074C1.43519 19.7685 0.964506 19.5756 0.578704 19.1898C0.192901 18.804 0 18.3333 0 17.7778V3.98148C0 3.42593 0.192901 2.95525 0.578704 2.56944C0.964506 2.18364 1.43519 1.99074 1.99074 1.99074H2.96296V0H4.9537V1.99074H12.8241V0H14.8148V1.99074H15.787ZM15.787 17.7778V6.94444H1.99074V17.7778H15.787ZM3.93518 8.88889H8.88889V13.8426H3.93518V8.88889Z" fill="#474D56"/>
</svg>
