<svg width="26" height="24" viewBox="0 0 26 24" fill="none" xmlns="http://www.w3.org/2000/svg">
<path d="M12.9047 0.96582C6.08166 0.96582 0.550781 5.3383 0.550781 10.7322C0.550781 14.2433 2.89446 17.3197 6.41126 19.0413C6.1527 20.0065 5.47558 22.5364 5.3399 23.0778C5.17286 23.7498 5.5863 23.7409 5.85702 23.5597C6.0695 23.4183 9.24262 21.2615 10.6116 20.3303C11.3546 20.4404 12.1207 20.4986 12.9047 20.4986C19.7277 20.4986 25.2586 16.1255 25.2586 10.7322C25.2586 5.3383 19.7271 0.96582 12.9047 0.96582Z" fill="#391B1B"/>
<path d="M7.93032 7.85608H4.31752C3.97768 7.85608 3.70312 8.13128 3.70312 8.47048C3.70312 8.80968 3.97832 9.08488 4.31752 9.08488H5.49192V13.4126C5.49192 13.57 5.55593 13.7249 5.66857 13.8369C5.77865 13.9482 5.93288 14.0122 6.09096 14.0122H6.22216C6.3796 14.0122 6.5332 13.9482 6.64392 13.8369C6.75656 13.7249 6.82056 13.5706 6.82056 13.4126V9.08488H7.92968C8.26952 9.08488 8.54472 8.80968 8.54472 8.47048C8.54536 8.13128 8.27016 7.85608 7.93032 7.85608Z" fill="#FAE300"/>
<path d="M16.6121 12.8565H14.9321V8.43663C14.9321 8.06799 14.6338 7.76974 14.2658 7.76974C13.8978 7.76974 13.5996 8.06799 13.5996 8.43663V13.2008C13.5996 13.2379 13.6041 13.2725 13.6098 13.3077C13.6034 13.3422 13.5996 13.3781 13.5996 13.4139C13.5996 13.7224 13.8486 13.972 14.157 13.972H16.6121C16.9212 13.972 17.1695 13.7224 17.1695 13.4139C17.1695 13.1067 16.9206 12.8565 16.6121 12.8565Z" fill="#FAE300"/>
<path d="M21.9807 13.0593L20.1087 10.6005L21.8002 8.90831C22.0294 8.67983 22.0294 8.30798 21.8002 8.07886C21.5711 7.84974 21.1999 7.84974 20.9702 8.07886L18.8761 10.1729V8.43663C18.8761 8.06799 18.5778 7.76974 18.2098 7.76974C17.8418 7.76974 17.543 8.06799 17.543 8.43663V13.3473C17.543 13.716 17.8412 14.0142 18.2098 14.0142C18.5778 14.0142 18.8761 13.7166 18.8761 13.3473V11.8325L19.2569 11.4523L21.0278 13.7761C21.2249 14.0392 21.5993 14.0936 21.8623 13.8945C22.1254 13.6968 22.1785 13.3224 21.9807 13.0593Z" fill="#FAE300"/>
<path d="M13.1022 13.2186L11.3018 8.29314C11.3018 8.29314 11.2974 8.2893 11.2961 8.28738C11.1809 7.98722 10.8487 7.76898 10.4526 7.76898C10.0129 7.76898 9.64937 8.03778 9.57705 8.38914C9.56489 8.41538 9.55273 8.44162 9.54249 8.46978L7.77225 13.2186C7.66281 13.5303 7.82665 13.8707 8.13705 13.9802C8.44809 14.0896 8.78921 13.9258 8.89865 13.6147L9.20521 12.7405H11.6692L11.9751 13.6147C12.0846 13.9258 12.4257 14.0896 12.7367 13.9802C13.0478 13.8714 13.2116 13.5303 13.1022 13.2186ZM9.59625 11.6243L10.4244 9.26146C10.434 9.26146 10.4417 9.26402 10.4513 9.26402L11.2788 11.6243H9.59625V11.6243Z" fill="#FAE300"/>
</svg>
