<svg id="레이어_1" data-name="레이어 1" xmlns="http://www.w3.org/2000/svg" viewBox="0 0 212.94 71.11"><defs><style>.cls-1{fill:#6195cf;stroke:#fff;stroke-width:4.9px;}.cls-2{fill:#f2f2f2;}</style></defs><path class="cls-1" d="M6.32,48.17h0a33.53,33.53,0,0,0,7.92,10.94A32,32,0,0,0,25.92,66a33.15,33.15,0,0,0,13.41,1.52c33.34-3.27,55.49-4.89,66.89-4.89s33.56,1.62,66.9,4.89A33.08,33.08,0,0,0,186.52,66a31.94,31.94,0,0,0,11.69-6.84,33.3,33.3,0,0,0,7.89-10.94A32.43,32.43,0,0,0,208.93,35a31.92,31.92,0,0,0-2.75-12.84h0a32,32,0,0,0-7.77-10.6,31.61,31.61,0,0,0-24.54-7.89,604.89,604.89,0,0,1-135.17,0h0A32.8,32.8,0,0,0,25.64,5h-.05a32.61,32.61,0,0,0-11.4,6.53A29.9,29.9,0,0,0,6.38,22.18,31.85,31.85,0,0,0,3.65,35,33.79,33.79,0,0,0,6.32,48.17Z"/><path class="cls-2" d="M45.59,21.3a2.55,2.55,0,0,0-2.52,2.28,10.51,10.51,0,0,1-2.92,6.62,10.33,10.33,0,0,1-5.32,2.54,2.54,2.54,0,0,0-2,2.51h0a2.54,2.54,0,0,0,2.54,2.54,2.28,2.28,0,0,0,.45,0A15.28,15.28,0,0,0,43.67,34a13.66,13.66,0,0,0,2.13-2.61A14.35,14.35,0,0,0,48,34a15.27,15.27,0,0,0,7.81,3.75,2.54,2.54,0,0,0,3-2,3.42,3.42,0,0,0,0-.46h0a2.54,2.54,0,0,0-2.06-2.49,10.34,10.34,0,0,1-5.22-2.52,10.56,10.56,0,0,1-2.92-6.63A2.53,2.53,0,0,0,46,21.3Z"/><rect class="cls-2" x="31.8" y="43.67" width="27.93" height="5.02" rx="2.51"/><rect class="cls-2" x="82.69" y="21.15" width="5.12" height="28.71" rx="2.55"/><rect class="cls-2" x="92.41" y="21.46" width="25.61" height="5.06" rx="2.53"/><path class="cls-2" d="M94.14,43.67h22.13a2.51,2.51,0,0,1,2.51,2.52h0a2.51,2.51,0,0,1-2.51,2.51H94.14a2.52,2.52,0,0,1-2.52-2.51h0A2.52,2.52,0,0,1,94.14,43.67Z"/><path class="cls-2" d="M94.91,39.14H115.5a2.51,2.51,0,0,0,2.51-2.5h0a2.51,2.51,0,0,0-2.51-2.52h-2.57l.19-3.91a2.51,2.51,0,0,0-2.4-2.62h-.22A2.53,2.53,0,0,0,108,30l-.19,4.14h-5.19L102.42,30a2.53,2.53,0,0,0-2.51-2.4h-.23a2.52,2.52,0,0,0-2.51,2.52v.12l.18,3.9H95a2.52,2.52,0,0,0-2.51,2.52h0A2.5,2.5,0,0,0,94.91,39.14Z"/><path class="cls-2" d="M122.48,29.93v6.41a2,2,0,0,0,2,1.95h8.19a2,2,0,0,0,2-1.95h0a2,2,0,0,0-2-2h-6.28V31.77h5.51a2,2,0,0,0,1.95-1.95h0V23.41a2,2,0,0,0-1.95-1.95h-7.4a2,2,0,0,0-1.95,1.95h0a1.94,1.94,0,0,0,1.94,2h5.78V28h-5.77a2,2,0,0,0-2,1.93Z"/><rect class="cls-2" x="144.33" y="21.15" width="5.12" height="19.86" rx="2.55"/><path class="cls-2" d="M137.84,32H138v5.69a2.54,2.54,0,0,0,2.54,2.54h0a2.53,2.53,0,0,0,2.54-2.53h0v-14a2.54,2.54,0,0,0-2.54-2.54h0A2.55,2.55,0,0,0,138,23.69v3.2h-.19a2.54,2.54,0,0,0-2.54,2.54h0A2.54,2.54,0,0,0,137.81,32Z"/><path class="cls-2" d="M124.84,43.44v3.91a2.51,2.51,0,0,0,2.51,2.51h20.58a2.51,2.51,0,0,0,2.51-2.51h0a2.51,2.51,0,0,0-2.51-2.51H130.45v-1.4a2.8,2.8,0,0,0-2.8-2.8h0a2.79,2.79,0,0,0-2.81,2.77Z"/><path class="cls-2" d="M61.76,24h0a2.54,2.54,0,0,1,2.53-2.54H76.68A2.54,2.54,0,0,1,79.21,24V46.12a2.54,2.54,0,0,1-2.53,2.54h-.06a2.54,2.54,0,0,1-2.53-2.54V38H64.9a2.54,2.54,0,0,1-2.53-2.53h0a2.54,2.54,0,0,1,2.53-2.54h9.19v-6.4h-9.8A2.53,2.53,0,0,1,61.76,24Z"/><path class="cls-2" d="M155.72,43.67h22.46a2.51,2.51,0,0,1,2.51,2.52h0a2.51,2.51,0,0,1-2.51,2.51H155.72a2.51,2.51,0,0,1-2.51-2.51h0A2.51,2.51,0,0,1,155.72,43.67Z"/><path class="cls-2" d="M179.91,23.85h0a2.56,2.56,0,0,0-2.55-2.57H156.55A2.57,2.57,0,0,0,154,23.85h0V36.23a2.57,2.57,0,0,0,2.57,2.56h20.8a2.56,2.56,0,0,0,2.56-2.56h0a2.56,2.56,0,0,0-2.56-2.57H159.52V26.42h17.83A2.56,2.56,0,0,0,179.91,23.85Z"/></svg>