<svg width="76" height="76" viewBox="0 0 76 76" fill="none" xmlns="http://www.w3.org/2000/svg">
<path d="M51.7152 40.8112C51.7152 41.5833 51.7152 42.4656 51.7152 43.2377C51.7152 44.5612 51.0534 45.4436 49.8402 45.995C48.9578 46.3259 48.1858 46.4362 47.3034 46.4362C46.9725 46.4362 46.5314 46.4362 46.2005 46.4362C45.9799 46.4362 45.7593 46.3259 45.7593 46.1053C45.5387 45.3333 45.5387 45.3333 46.3108 45.3333C46.8622 45.3333 47.4137 45.3333 47.9652 45.223C49.2887 45.0024 49.6196 43.8995 49.5093 42.9068C49.5093 42.6862 49.399 42.7965 49.2887 42.7965C47.8549 43.2377 46.3108 43.2377 44.8769 42.7965C43.3328 42.4656 42.5608 41.3627 42.5608 39.7083C42.5608 38.9362 42.4505 38.2745 42.6711 37.5024C42.8917 36.5098 43.4431 35.7377 44.4358 35.4068C45.0975 35.076 45.8696 35.076 46.6416 35.076C47.524 35.076 48.5166 35.076 49.399 35.2965C51.1637 35.7377 51.9357 36.7304 51.9357 38.4951C51.8255 39.3774 51.7152 40.0392 51.7152 40.8112ZM44.7667 39.1568C44.7667 39.4877 44.7667 39.8186 44.7667 40.2598C44.8769 41.3627 45.4284 42.0245 46.4211 42.1348C46.9725 42.2451 47.524 42.2451 48.0755 42.1348C48.9578 42.0245 49.5093 41.5833 49.5093 40.5906C49.5093 39.7083 49.5093 38.9362 49.5093 38.0539C49.399 37.1715 48.9578 36.5098 48.0755 36.3995C47.4137 36.2892 46.7519 36.2892 46.2005 36.3995C45.5387 36.5098 45.0975 36.951 44.9872 37.6127C44.6564 38.0539 44.7667 38.6054 44.7667 39.1568Z" fill="#683583"/>
<path d="M11.8986 38.1641C11.7883 38.2744 11.678 38.2744 11.5677 38.3847C9.91332 38.9361 9.03097 40.2597 8.4795 41.9141C8.4795 42.0244 8.36921 42.1347 8.5898 42.1347C10.3545 42.3552 12.781 41.8038 13.9942 39.9288C14.8765 38.6053 14.8765 37.2817 14.3251 35.9582C13.9942 35.0759 13.6633 34.1935 13.553 33.3112C13.4427 31.9876 13.6633 30.7744 14.3251 29.6715C14.656 29.12 15.0971 28.5685 15.5383 28.1274C15.6486 28.0171 15.6486 27.9068 15.7589 28.1274C16.7515 29.2303 17.5236 30.4435 17.7442 31.9876C17.8545 32.7597 17.7442 33.5317 17.5236 34.3038C17.5236 34.4141 17.4133 34.5244 17.303 34.6347C17.1927 34.4141 17.303 34.3038 17.303 34.1935C17.5236 32.7597 17.0824 31.5465 16.2001 30.5538C16.0898 30.3332 15.8692 30.2229 15.7589 30.0023C15.6486 29.7818 15.5383 29.8921 15.428 30.0023C14.3251 31.5465 13.8839 33.3112 14.5457 35.1862C14.7662 36.0685 15.0971 36.8406 15.0971 37.7229V37.8332C15.3177 38.0538 15.6486 37.8332 15.8692 37.9435C15.9795 37.9435 16.0898 37.9435 16.0898 37.7229C16.3104 35.2964 18.4059 33.2009 21.053 32.87C22.0456 32.7597 23.1486 32.87 24.1412 33.0906C24.2515 33.0906 24.2515 33.2009 24.2515 33.3112C23.8103 34.6347 23.1486 35.9582 21.9353 36.8406C21.2736 37.392 20.5015 37.7229 19.6192 37.8332H19.5089C19.5089 37.7229 19.6192 37.7229 19.7295 37.7229C21.1633 37.1714 22.0456 36.1788 22.5971 34.745C22.928 33.9729 22.928 33.9729 22.0456 33.8626C20.1706 33.8626 18.5162 34.4141 17.303 36.0685C16.3104 37.2817 16.4207 38.7156 16.8618 40.0391C17.0824 40.7008 17.4133 41.3626 17.5236 42.1347C17.8545 43.8994 17.5236 45.5538 16.4207 46.9876C16.2001 47.3185 15.8692 47.6493 15.6486 47.9802C15.5383 48.0905 15.5383 48.0905 15.428 47.9802C14.4354 46.767 13.553 45.4435 13.4427 43.8994C13.3324 43.1273 13.553 42.4655 13.7736 41.8038C13.7736 41.6935 13.7736 41.6935 13.8839 41.6935C13.8839 41.8038 13.8839 42.0244 13.8839 42.1347C13.6633 43.6788 14.2148 44.892 15.0971 45.9949C15.0971 45.9949 15.0971 46.1052 15.2074 46.1052C15.6486 46.5464 15.6486 46.5464 15.9795 45.9949C16.9721 44.4508 17.303 42.7964 16.7515 41.0317C16.5309 40.1494 16.2001 39.3773 16.2001 38.495C16.2001 38.3847 16.0898 38.2744 15.9795 38.2744C15.8692 38.2744 15.8692 38.2744 15.7589 38.2744C15.2074 38.2744 15.2074 38.2744 15.0971 38.8258C14.656 41.142 13.1118 42.5758 10.906 43.1273C9.69273 43.4582 8.36921 43.3479 7.15598 43.1273C7.04569 43.1273 6.93539 43.1273 7.04569 42.9067C7.70745 41.0317 8.5898 39.3773 10.5751 38.6053C11.0163 38.2744 11.3471 38.1641 11.8986 38.1641Z" fill="#683583"/>
<path d="M53.3691 38.0539C53.3691 36.5098 53.3691 34.9656 53.3691 33.4215C53.3691 32.8701 53.5897 32.5392 54.1412 32.4289C54.5824 32.3186 55.0235 32.2083 55.4647 32.098C55.6853 31.9877 55.7956 32.098 55.7956 32.3186C55.7956 33.3112 55.7956 34.3039 55.7956 35.2965C55.7956 35.5171 55.9059 35.6274 56.1265 35.5171C57.0088 35.1862 58.0015 35.2965 58.9941 35.2965C59.4353 35.2965 59.8765 35.4068 60.3176 35.5171C61.8618 35.848 62.6338 36.8406 62.7441 38.3847C62.8544 39.8186 62.7441 41.3627 62.7441 42.7965C62.7441 42.9068 62.6338 43.0171 62.5235 43.0171C61.8618 43.0171 61.2 43.0171 60.6485 43.0171C60.4279 43.0171 60.4279 42.9068 60.4279 42.6862C60.4279 41.3627 60.4279 40.0392 60.4279 38.7156C60.4279 38.2745 60.3176 37.9436 60.3176 37.5024C60.0971 36.8406 59.6559 36.3995 58.9941 36.2892C58.3324 36.1789 57.6706 36.1789 57.0088 36.2892C56.3471 36.3995 55.9059 36.8406 55.9059 37.5024C55.9059 37.723 55.9059 37.8333 55.9059 38.0539C55.9059 39.598 55.9059 41.0318 55.9059 42.5759C55.9059 42.7965 55.9059 42.9068 55.6853 42.9068C55.1338 42.9068 54.5824 42.9068 53.9206 42.9068C53.7 42.9068 53.5897 42.9068 53.5897 42.5759C53.3691 41.1421 53.3691 39.598 53.3691 38.0539Z" fill="#683583"/>
<path d="M27.45 38.0538C27.45 36.62 27.45 35.0759 27.45 33.6421C27.45 32.9803 27.6706 32.7597 28.2221 32.5392C28.6633 32.4289 29.1044 32.3186 29.4353 32.2083C29.6559 32.098 29.6559 32.2083 29.6559 32.4289C29.6559 33.4215 29.6559 34.5244 29.6559 35.5171C29.6559 35.7377 29.6559 35.848 29.8765 35.7377C30.8691 35.4068 31.8618 35.4068 32.7441 35.5171C33.4059 35.5171 34.0676 35.6274 34.6191 35.848C35.5015 36.1788 36.0529 36.8406 36.3838 37.723C36.4941 38.1641 36.6044 38.7156 36.6044 39.1568C36.6044 40.37 36.6044 41.5832 36.6044 42.9068C36.6044 43.1273 36.4941 43.2376 36.2735 43.2376C35.7221 43.2376 35.0603 43.2376 34.5088 43.2376C34.2882 43.2376 34.1779 43.1273 34.2882 42.9068C34.2882 41.6935 34.2882 40.4803 34.2882 39.2671C34.2882 38.8259 34.2882 38.2744 34.0676 37.8332C33.8471 37.1715 33.4059 36.7303 32.7441 36.62C32.0824 36.5097 31.4206 36.5097 30.7588 36.62C29.9868 36.7303 29.6559 37.1715 29.5456 37.8332C29.4353 38.3847 29.5456 38.9362 29.5456 39.5979C29.5456 40.7009 29.5456 41.8038 29.5456 42.9068C29.5456 43.1273 29.4353 43.2376 29.2147 43.2376C28.6633 43.2376 28.0015 43.2376 27.45 43.2376C27.2294 43.2376 27.1191 43.1273 27.1191 42.9068C27.45 41.1421 27.45 39.5979 27.45 38.0538Z" fill="#683583"/>
<path d="M68.1482 37.6126C68.1482 39.3773 68.1482 41.0317 68.1482 42.7964C68.1482 43.017 68.0379 43.1273 67.8173 43.1273C67.2658 43.1273 66.7144 43.1273 66.0526 43.1273C65.832 43.1273 65.7217 43.017 65.7217 42.7964C65.7217 39.9288 65.7217 37.1715 65.7217 34.3038C65.7217 33.8626 65.7217 33.8626 65.3908 33.9729C64.9497 34.0832 64.6188 34.1935 64.1776 34.3038C64.0673 34.3038 63.957 34.3038 63.957 34.1935C63.957 34.1935 63.957 34.1935 63.957 34.0832C63.957 33.3112 63.957 33.3112 64.7291 33.0906C65.7217 32.87 66.7144 32.5391 67.707 32.3185C67.9276 32.2082 68.0379 32.3185 68.0379 32.5391C68.1482 34.1935 68.1482 35.8479 68.1482 37.6126Z" fill="#683583"/>
<path d="M40.7947 39.267C40.7947 40.4803 40.7947 41.5832 40.7947 42.7964C40.7947 43.017 40.6844 43.1273 40.4638 43.1273C39.9123 43.1273 39.2506 43.1273 38.6991 43.1273C38.4785 43.1273 38.4785 43.017 38.4785 42.9067C38.4785 40.9214 38.4785 38.8259 38.4785 36.8406C38.4785 36.3994 38.6991 36.0685 39.1403 35.9582C39.5815 35.8479 40.0226 35.7376 40.5741 35.6273C40.7947 35.5171 40.7947 35.6273 40.7947 35.8479C40.7947 36.8406 40.7947 38.0538 40.7947 39.267Z" fill="#683583"/>
<path d="M17.082 37.9436C17.4129 37.8333 17.7438 37.8333 17.9644 37.8333C20.1703 37.8333 21.935 38.7157 23.2585 40.4804C23.6997 41.1421 24.0305 41.9142 24.3614 42.6862C24.3614 42.7965 24.3614 42.9068 24.2511 42.9068C22.707 43.2377 21.1629 43.2377 19.7291 42.5759C19.0673 42.2451 18.5159 41.8039 17.9644 41.1421C17.9644 41.1421 17.8541 41.0318 17.9644 41.0318C18.0747 41.0318 18.0747 41.0318 18.185 41.0318C19.5085 42.1348 20.9423 42.3554 22.5967 42.0245C23.0379 41.9142 23.0379 41.9142 22.8173 41.473C21.8247 39.4877 20.1703 38.3848 18.185 37.9436C17.8541 38.0539 17.5232 38.0539 17.082 37.9436Z" fill="#683583"/>
<path d="M14.3243 37.8332C14.214 37.9435 14.214 37.9435 14.1037 37.9435C11.8978 38.0538 9.91256 37.5023 8.47874 35.7376C7.81698 34.9656 7.3758 33.9729 7.04492 32.9803C7.04492 32.87 7.04492 32.7597 7.15522 32.7597C8.80962 32.4288 10.3537 32.4288 11.8978 33.2009C12.5596 33.5317 13.0008 33.9729 13.442 34.5244V34.6347C13.3317 34.6347 13.3317 34.6347 13.2214 34.5244C12.0081 33.4214 10.5743 33.2009 8.91992 33.5317C8.25815 33.642 8.25815 33.642 8.58903 34.1935C9.47138 36.0685 11.1258 37.0611 13.1111 37.5023C13.5523 37.7229 13.8831 37.7229 14.3243 37.8332Z" fill="#683583"/>
<path d="M14.9863 33.5317C14.9863 32.6494 15.2069 31.8773 15.6481 31.2156C15.8687 30.8847 15.8687 30.8847 16.0893 31.2156C17.1922 32.6494 17.0819 34.745 16.0893 36.1788L15.979 36.2891C15.7584 36.5097 15.6481 36.5097 15.6481 36.1788C15.2069 35.2964 14.9863 34.4141 14.9863 33.5317Z" fill="#FCC426"/>
<path d="M21.0524 41.5832C19.5083 41.4729 18.1848 40.9215 17.523 39.3774C17.4127 39.1568 17.1922 38.9362 17.4127 38.7156C17.523 38.495 17.8539 38.7156 18.0745 38.7156C19.5083 39.0465 20.7216 39.7083 21.6039 40.9215C21.7142 41.1421 21.9348 41.2524 21.8245 41.473C21.7142 41.6935 21.4936 41.5832 21.273 41.5832C21.1627 41.5832 21.0524 41.5832 21.0524 41.5832Z" fill="#FCC426"/>
<path d="M18.075 37.2817C17.4132 37.2817 17.3029 37.1714 17.6338 36.62C18.2956 35.4067 19.3985 34.8553 20.722 34.5244C21.0529 34.4141 21.3838 34.4141 21.6044 34.4141C21.825 34.4141 21.825 34.5244 21.825 34.745C21.6044 35.517 21.1632 36.0685 20.5014 36.5097C19.7294 36.9508 18.9573 37.2817 18.075 37.2817Z" fill="#FCC426"/>
<path d="M14.5469 42.2451C14.5469 41.2524 14.9881 40.4804 15.5395 39.7083C15.6498 39.598 15.7601 39.598 15.8704 39.7083C16.5322 41.2524 16.6425 42.9068 15.8704 44.4509C15.6498 45.0024 15.5395 45.0024 15.2086 44.4509C14.8778 43.7892 14.5469 43.0171 14.5469 42.2451Z" fill="#FCC426"/>
<path d="M13.2214 38.6053C13.2214 38.6053 13.442 38.6053 13.5523 38.6053C13.9935 38.6053 14.1037 38.7156 13.8832 39.1568C13.5523 39.8185 13.1111 40.2597 12.5596 40.5906C11.7876 41.1421 10.9052 41.3626 10.0229 41.3626C9.692 41.3626 9.692 41.3626 9.80229 41.0318C10.2435 39.8185 11.567 38.495 13.2214 38.6053Z" fill="#FCC426"/>
<path d="M10.5761 34.3038C12.4511 34.4141 13.5541 35.1862 14.1055 36.8406C14.2158 37.2818 14.2158 37.3921 13.6643 37.2818C12.3408 36.9509 11.2379 36.3994 10.3555 35.4068C10.1349 35.1862 10.0247 34.8553 9.91436 34.6347C9.80407 34.4141 9.91436 34.3038 10.1349 34.3038C10.2452 34.3038 10.4658 34.3038 10.5761 34.3038Z" fill="#FCC426"/>
<path d="M39.5822 32.4289C39.5822 32.4289 39.6925 32.4289 39.5822 32.4289C40.7954 32.3186 41.016 33.0907 40.9057 33.973C40.9057 34.4142 40.4645 34.7451 40.0234 34.7451C39.8028 34.7451 39.4719 34.7451 39.2513 34.7451C38.6998 34.7451 38.369 34.3039 38.369 33.7524C38.1484 32.6495 38.6998 32.3186 39.5822 32.4289Z" fill="#683583"/>
</svg>
