<svg width="76" height="76" viewBox="0 0 76 76" fill="none" xmlns="http://www.w3.org/2000/svg">
<path d="M37.9992 19C31.1992 19 25.6992 24.5 25.6992 31.2C25.6992 38.1 31.0992 43.6 37.9992 43.6C44.7992 43.6 50.2992 38.1 50.2992 31.2C50.2992 24.5 44.6992 19 37.9992 19ZM28.1992 28.5C28.3992 27.4 28.7992 26.5 29.2992 25.5C29.4992 25.3 29.4992 25 29.3992 24.8C29.0992 24.1 29.3992 23.7 30.1992 23.9C30.4992 23.9 30.6992 23.9 30.7992 23.7C31.9992 22.6 33.2992 21.7 34.8992 21.4C36.7992 21 37.6992 22 37.0992 23.8C36.9992 24.1 36.8992 24.4 36.7992 24.7C36.3992 24.1 35.7992 23.8 35.1992 23.7C33.8992 23.5 32.6992 23.7 31.5992 24.5C31.2992 24.7 31.2992 24.9 31.4992 25.1C31.7992 25.5 32.2992 25.6 32.6992 25.5C33.4992 25.4 34.2992 25.3 35.1992 25.7C33.4992 26 32.8992 27.3 32.3992 28.7C32.2992 28 32.1992 27.4 31.9992 27C31.7992 26.5 31.3992 26.2 30.8992 26C30.5992 25.9 30.4992 26 30.3992 26.2C29.8992 27.7 30.2992 29.1 31.4992 30.2C31.5992 30.3 31.6992 30.3 31.6992 30.4C30.9992 30.6 30.1992 30.7 29.3992 30.5C28.4992 30.2 28.0992 29.5 28.1992 28.5ZM36.9992 39.2C36.7992 39.3 36.6992 39.4 36.4992 39.5C36.3992 39.6 36.3992 39.6 36.2992 39.7C35.7992 40.4 35.8992 40.5 36.4992 41C36.5992 41.1 36.7992 41.2 36.6992 41.3C36.5992 41.5 36.3992 41.4 36.2992 41.4C34.6992 41.1 33.0992 40.6 31.7992 39.5C31.6992 39.4 31.5992 39.3 31.3992 39.3C31.2992 39.3 31.2992 39.4 31.2992 39.5C31.1992 39.6 31.2992 39.7 31.1992 39.8C30.9992 39.9 30.8992 39.7 30.7992 39.6C30.6992 39.5 30.5992 39.3 30.3992 39.2C30.2992 39 30.2992 39 30.3992 38.1C30.2992 38 30.1992 38.1 30.0992 38.2C29.6992 38.3 28.9992 37.9 28.9992 37.4C28.9992 37.2 29.0992 37.2 29.1992 37.2C29.3992 37.2 29.4992 37.4 29.6992 37.3C29.3992 36.7 29.0992 36.2 28.7992 35.6C28.3992 34.8 28.0992 34 27.9992 33.1C27.9992 32.8 27.8992 32.4 28.1992 32.3C28.4992 32.2 28.4992 32.6 28.6992 32.8C29.0992 33 29.4992 33 29.7992 32.7C29.8992 32.6 29.9992 32.5 30.1992 32.6C30.3992 32.7 30.2992 32.8 30.2992 33C30.1992 34.1 30.2992 35.1 30.4992 36.1L30.5992 36.2C30.5992 36.3 30.6992 36.4 30.6992 36.5C30.6992 36.6 30.6992 36.7 30.8992 36.7C30.8992 36.5 30.8992 36.3 30.7992 36.2C30.7992 35.4 30.7992 34.6 30.9992 33.8C31.0992 33.3 31.2992 32.9 31.6992 32.5C31.7992 32.4 31.8992 32.3 32.0992 32.3C32.1992 32.4 32.1992 32.6 32.0992 32.7C31.9992 33 31.9992 33.3 32.0992 33.6C32.2992 33.7 32.5992 33.7 32.7992 33.6C32.9992 33.6 33.0992 33.5 33.1992 33.6C33.3992 33.9 33.0992 33.9 32.9992 34C32.2992 34.6 31.7992 35.2 31.6992 36.2C31.5992 37 32.0992 37.3 32.7992 37C33.1992 36.9 33.3992 36.6 33.5992 36.3C33.6992 36.1 33.7992 36 33.8992 35.8C33.9992 35.6 34.1992 35.4 34.3992 35.4C34.5992 35.5 34.4992 35.8 34.4992 35.9C34.4992 36.4 34.7992 36.6 35.2992 36.7C35.5992 36.8 35.8992 36.7 36.1992 36.7C36.3992 36.7 36.6992 36.6 36.6992 36.9C36.7992 37.1 36.5992 37.3 36.3992 37.4C35.9992 37.7 35.5992 37.9 35.1992 38C34.2992 38.2 33.2992 38.2 32.3992 38H32.0992C32.0992 38.1 32.1992 38.2 32.2992 38.3C32.5992 38.4 32.8992 38.5 33.1992 38.7C33.8992 39 34.4992 39 35.1992 38.9C35.3992 38.8 35.6992 38.9 35.8992 38.8H35.9992C36.2992 38.6 36.6992 38.7 36.9992 38.7C37.2992 38.8 37.1992 39 36.9992 39.2ZM34.1992 31.3C34.1992 29.2 35.8992 27.5 37.9992 27.5C40.0992 27.5 41.7992 29.2 41.7992 31.3C41.7992 33.4 40.0992 35.1 37.9992 35.1C35.8992 35.1 34.1992 33.4 34.1992 31.3ZM47.8992 34.2C47.5992 36.6 46.1992 38.3 44.3992 39.6C43.2992 40.4 42.0992 41 41.0992 41C38.9992 41 38.3992 40.2 38.7992 38.5C38.8992 38 39.0992 37.6 39.3992 37.2C39.5992 36.9 39.8992 36.7 40.2992 36.5C41.0992 36.3 41.4992 36.7 41.3992 37.4C41.3992 37.6 41.3992 37.8 41.3992 38C41.3992 38.6 41.7992 38.9 42.3992 38.8C44.0992 38.5 45.1992 37.4 46.0992 35.9C46.6992 34.8 47.0992 33.7 46.8992 32.4C46.8992 32.2 46.8992 32 47.0992 31.9C47.3992 31.8 47.5992 32 47.6992 32.3C47.9992 33 47.8992 33.6 47.8992 34.2ZM47.9992 30.5C47.6992 30.6 47.3992 30.6 47.0992 30.5C46.8992 30.5 47.0992 30.3 47.0992 30.2C47.2992 30 47.3992 29.7 47.3992 29.4C47.5992 28.4 47.1992 27.7 46.1992 27.3C45.3992 27 44.5992 27 43.6992 27C43.3992 27 42.9992 27.2 42.8992 26.8C42.7992 26.4 43.0992 26.2 43.3992 26C43.5992 25.9 43.8992 25.9 43.8992 25.6C43.7992 25.4 43.4992 25.4 43.1992 25.3C42.5992 25.2 41.9992 25.3 41.3992 25.4C41.1992 25.4 41.0992 25.5 40.8992 25.5C40.1992 25.5 39.9992 25.1 40.2992 24.5C40.4992 24.2 40.4992 24.1 40.0992 24C39.0992 23.8 38.4992 22.8 38.6992 21.8C38.6992 21.7 38.6992 21.6 38.8992 21.6C40.1992 21.6 41.3992 21.3 42.6992 21.7C44.4992 22.2 45.6992 23.2 46.5992 24.8C46.7992 25 46.8992 25.3 46.8992 25.6C46.6992 25.5 46.5992 25.2 46.4992 25.1C45.6992 24.1 44.5992 23.5 43.2992 23.4C43.2992 23.4 43.2992 23.4 43.1992 23.4C43.1992 23.5 43.2992 23.6 43.3992 23.6C44.8992 24.2 46.1992 25.1 47.0992 26.4C47.6992 27.5 48.0992 28.7 48.0992 30C48.0992 30.2 48.1992 30.5 47.9992 30.5Z" fill="#062F5F"/>
<path d="M40.8984 52.2C40.8984 53 40.8984 53.6 40.8984 54.4C42.1984 54.5 43.3984 54.5 44.5984 54C44.7984 53.9 44.9984 53.6 44.9984 53.4C44.9984 52 44.9984 50.7 44.9984 49.3C44.9984 49 44.8984 48.8 44.7984 48.5C45.2984 48.5 45.7984 48.6 46.2984 48.6C46.2984 51.5 46.2984 54.3 46.2984 57.2C45.8984 57.2 45.4984 57.2 45.0984 57.2C45.0984 56.3 45.0984 55.5 45.0984 54.5C43.5984 55.3 42.1984 55.2 40.6984 55.2C39.7984 55.2 39.5984 55 39.5984 54.1C39.5984 53.6 39.5984 53.1 39.5984 52.6C39.5984 52.3 39.4984 52 39.3984 51.6C40.3984 51.6 41.3984 51.6 42.4984 51.6C42.4984 51 42.4984 50.4 42.4984 49.8C41.4984 49.4 40.2984 50.1 39.3984 49.3C39.3984 49.2 39.3984 49.1 39.3984 49C40.7984 49 42.0984 49 43.4984 49C43.5984 49 43.7984 49.2 43.7984 49.3C43.7984 50.2 43.7984 51.2 43.7984 52.2C42.7984 52.2 41.8984 52.2 40.8984 52.2Z" fill="#062F5F"/>
<path d="M17 49.6C15.5 49.6 14 49.6 12.6 49.6C12.2 49.6 11.9 49.5 11.9 49C14 49 16.1 49 18.3 49C18.2 50.2 18.2 51.3 18.1 52.4C18.2 52.8 19.2 52.1 19 53.2C18.7 53.2 18.3 53.2 18 53.2C15.9 53.2 13.9 53.2 11.8 53.2C11.3 53.2 11.1 53 11 52.5C11.9 52.5 12.8 52.5 13.8 52.5C13.8 51.8 13.7 51.3 13.7 50.6C14.1 50.7 14.8 50.6 15 50.9C15.3 51.3 15.1 52 15.1 52.6C15.5 52.6 16 52.6 16.3 52.6C16.5 52.6 16.8 52.3 16.8 52.2C16.9 51.4 17 50.6 17 49.6Z" fill="#062F5F"/>
<path d="M59.4008 49.6C59.4008 50.1 59.4008 50.4 59.4008 50.8C60.9008 50.8 62.4008 50.8 63.9008 50.8C63.9008 51.1 63.9008 51.3 64.0008 51.5C62.5008 51.5 61.0008 51.5 59.4008 51.5C59.4008 52 59.4008 52.4 59.4008 52.9C61.0008 52.9 62.6008 52.9 64.1008 52.9C64.3008 53.4 64.1008 53.6 63.6008 53.6C62.1008 53.6 60.6008 53.6 59.0008 53.6C58.2008 53.6 58.0008 53.4 58.0008 52.5C58.0008 51.6 58.0008 50.8 58.0008 49.9C58.0008 49.6 57.9008 49.2 57.8008 48.9C59.8008 48.9 61.8008 48.9 63.9008 48.9C63.9008 49.1 63.9008 49.3 64.0008 49.5C62.6008 49.6 61.0008 49.6 59.4008 49.6Z" fill="#062F5F"/>
<path d="M25.7984 54.6C25.0984 55.4 23.9984 54.9 23.1984 53.4C22.7984 54.3 22.0984 54.9 21.1984 55C20.9984 55 20.7984 54.8 20.3984 54.6C22.5984 53.5 22.5984 51.6 22.4984 49.8C21.8984 49.3 20.8984 50.1 20.5984 49C22.1984 49 23.7984 49 25.3984 49C25.5984 49.6 25.5984 49.6 24.9984 49.7C24.5984 49.7 24.2984 49.7 23.8984 49.7C23.4984 52.1 24.0984 53.7 25.7984 54.6Z" fill="#062F5F"/>
<path d="M51.3 49.7C50.5 49.6 49.8 49.6 49 49.5C48.9 49.5 48.9 49.2 48.8 49C50.9 49 53 49 55.1 49C55.1 49.2 55.1 49.4 55.1 49.6C54.2 49.6 53.4 49.6 52.6 49.6C52.4 51.1 53.3 52.1 55.4 53.1C55.1 53.2 54.8 53.3 54.5 53.3C53.5 53.2 52.5 52.7 52 51.8C50.7 53.3 49.1 53.8 48.5 52.9C50.6 52.2 51.3 51.3 51.3 49.7Z" fill="#062F5F"/>
<path d="M30.6992 53.9C30.7992 54.2 30.8992 54.6 30.8992 54.9C30.8992 55.3 30.8992 55.8 30.8992 56.3C30.8992 56.8 31.1992 57.1 31.6992 57.2C33.3992 57.2 35.0992 57.2 36.6992 57.2V53.9H30.6992ZM35.5992 56.5H32.2992V54.7H35.5992V56.5Z" fill="#062F5F"/>
<path d="M26.2984 48.5C26.1984 48.5 26.2984 48.5 26.2984 48.5C27.7984 48.5 27.7984 48.5 27.7984 49.9C27.7984 52.1 27.7984 54.2 27.7984 56.4C27.7984 56.7 27.7984 56.9 27.7984 57.2C27.2984 57.2 26.9983 57.2 26.4983 57.2C26.4983 56.9 26.4983 56.6 26.4983 56.3C26.4983 54.1 26.4983 51.9 26.4983 49.6C26.4983 49.2 26.2984 48.8 26.2984 48.5Z" fill="#062F5F"/>
<path d="M31.9992 48.7C30.6992 48.7 29.6992 49.6999 29.6992 50.9C29.6992 52.1 30.7992 53 31.9992 53C33.2992 53 34.2992 51.9999 34.2992 50.7999C34.2992 49.5999 33.2992 48.7 31.9992 48.7ZM31.9992 52.2999C31.3992 52.2999 30.9992 51.5999 30.9992 50.7999C30.9992 50.0999 31.4992 49.4 31.9992 49.4C32.5992 49.4 33.0992 50.0999 33.0992 50.7999C32.9992 51.5999 32.4992 52.2999 31.9992 52.2999Z" fill="#062F5F"/>
<path d="M47.8984 55.5C48.9984 55.5 50.0984 55.5 51.3984 55.5C51.2984 54.9 51.2984 54.3 51.1984 53.7C51.4984 53.7 52.0984 53.7999 52.5984 53.7999C52.5984 53.8999 52.6984 54.1 52.6984 54.2C52.6984 55.4 52.6984 55.4 53.9984 55.4C54.4984 55.4 55.0984 55.4 55.5984 55.4C55.9984 55.4 56.1984 55.5 56.0984 56C55.0984 56 53.9984 56 52.8984 56C51.4984 56 50.0984 56 48.7984 56C48.1984 56.2 47.8984 56.1 47.8984 55.5Z" fill="#062F5F"/>
<path d="M18.3996 57.2C16.5996 57.2 14.8996 57.2 13.0996 57.2C12.5996 57.2 12.2996 56.9 12.2996 56.3C12.2996 55.9 12.2996 55.6 12.2996 55.2C12.2996 54.9 12.0996 54.5 12.0996 54.1C12.4996 54.1 12.9996 54.2 13.5996 54.3C13.5996 55 13.5996 55.7 13.5996 56.4C14.4996 56.4 15.3996 56.4 16.1996 56.4C16.7996 56.4 17.3996 56.4 17.9996 56.4C18.3996 56.4 18.5996 56.6 18.3996 57.2Z" fill="#062F5F"/>
<path d="M35.3984 48.5C35.7984 48.5 36.1984 48.6 36.7984 48.6C36.7984 49.2 36.7984 49.6 36.8984 50.2C37.2984 50.2 37.6984 50.3 38.1984 50.3C38.1984 50.5 38.1984 50.7 38.1984 50.9C37.7984 50.9 37.2984 50.9 36.7984 51C36.7984 51.7 36.7984 52.4 36.7984 53.2C36.3984 53.2 35.9984 53.2 35.4984 53.2C35.4984 52.1 35.4984 51.1 35.4984 50C35.5984 49.4 35.4984 49 35.3984 48.5Z" fill="#062F5F"/>
<path d="M57.0996 55.6C59.7996 55.6 62.3996 55.6 65.0996 55.6C65.0996 55.8 65.0996 56 65.0996 56.2C64.9996 56.2 64.8996 56.2 64.7996 56.2C62.4996 56.2 60.0996 56.2 57.7996 56.2C57.3996 56.2 57.0996 56.1 57.0996 55.6Z" fill="#062F5F"/>
<path d="M28.1986 28.5C28.3986 27.4 28.7986 26.5 29.2986 25.5C29.4986 25.3 29.4986 25 29.3986 24.8C29.0986 24.1 29.3986 23.7 30.1986 23.9C30.4986 23.9 30.6986 23.9 30.7986 23.7C31.9986 22.6 33.2986 21.7 34.8986 21.4C36.7986 21 37.6986 22 37.0986 23.8C36.9986 24.1 36.8986 24.4 36.7986 24.7C36.3986 24.1 35.7986 23.8 35.1986 23.7C33.8986 23.5 32.6986 23.7 31.5986 24.5C31.2986 24.7 31.2986 24.9 31.4986 25.1C31.7986 25.5 32.2986 25.6 32.6986 25.5C33.4986 25.4 34.2986 25.3 35.1986 25.7C33.4986 26 32.8986 27.3 32.3986 28.7C32.2986 28 32.1986 27.4 31.9986 27C31.7986 26.5 31.3986 26.2 30.8986 26C30.5986 25.9 30.4986 26 30.3986 26.2C29.8986 27.7 30.2986 29.1 31.4986 30.2C31.5986 30.3 31.6986 30.3 31.6986 30.4C30.9986 30.6 30.1986 30.7 29.3986 30.5C28.4986 30.2 28.0986 29.5 28.1986 28.5Z" fill="#F48473"/>
<path d="M37.0004 39.2C36.8004 39.3 36.7004 39.4 36.5004 39.5C36.4004 39.6 36.4004 39.6 36.3004 39.7C35.8004 40.4 35.9004 40.5 36.5004 41C36.6004 41.1 36.8004 41.2 36.7004 41.3C36.6004 41.5 36.4004 41.4 36.3004 41.4C34.7004 41.1 33.1004 40.6 31.8004 39.5C31.7004 39.4 31.6004 39.3 31.4004 39.3C31.3004 39.3 31.3004 39.4 31.3004 39.5C31.2004 39.6 31.3004 39.7 31.2004 39.8C31.0004 39.9 30.9004 39.7 30.8004 39.6C30.7004 39.5 30.6004 39.3 30.4004 39.2C30.3004 39 30.3004 39 30.4004 38.1C30.3004 38 30.2004 38.1 30.1004 38.2C29.7004 38.3 29.0004 37.9 29.0004 37.4C29.0004 37.2 29.1004 37.2 29.2004 37.2C29.4004 37.2 29.5004 37.4 29.7004 37.3C29.4004 36.7 29.1004 36.2 28.8004 35.6C28.4004 34.8 28.1004 34 28.0004 33.1C28.0004 32.8 27.9004 32.4 28.2004 32.3C28.5004 32.2 28.5004 32.6 28.7004 32.8C29.1004 33 29.5004 33 29.8004 32.7C29.9004 32.6 30.0004 32.5 30.2004 32.6C30.4004 32.7 30.3004 32.8 30.3004 33C30.2004 34.1 30.3004 35.1 30.5004 36.1L30.6004 36.2C30.6004 36.3 30.7004 36.4 30.7004 36.5C30.7004 36.6 30.7004 36.7 30.9004 36.7C30.9004 36.5 30.9004 36.3 30.8004 36.2C30.8004 35.4 30.8004 34.6 31.0004 33.8C31.1004 33.3 31.3004 32.9 31.7004 32.5C31.8004 32.4 31.9004 32.3 32.1004 32.3C32.2004 32.4 32.2004 32.6 32.1004 32.7C32.0004 33 32.0004 33.3 32.1004 33.6C32.3004 33.7 32.6004 33.7 32.8004 33.6C33.0004 33.6 33.1004 33.5 33.2004 33.6C33.4004 33.9 33.1004 33.9 33.0004 34C32.3004 34.6 31.8004 35.2 31.7004 36.2C31.6004 37 32.1004 37.3 32.8004 37C33.2004 36.9 33.4004 36.6 33.6004 36.3C33.7004 36.1 33.8004 36 33.9004 35.8C34.0004 35.6 34.2004 35.4 34.4004 35.4C34.6004 35.5 34.5004 35.8 34.5004 35.9C34.5004 36.4 34.8004 36.6 35.3004 36.7C35.6004 36.8 35.9004 36.7 36.2004 36.7C36.4004 36.7 36.7004 36.6 36.7004 36.9C36.8004 37.1 36.6004 37.3 36.4004 37.4C36.0004 37.7 35.6004 37.9 35.2004 38C34.3004 38.2 33.3004 38.2 32.4004 38H32.1004C32.1004 38.1 32.2004 38.2 32.3004 38.3C32.6004 38.4 32.9004 38.5 33.2004 38.7C33.9004 39 34.5004 39 35.2004 38.9C35.4004 38.8 35.7004 38.9 35.9004 38.8H36.0004C36.3004 38.6 36.7004 38.7 37.0004 38.7C37.3004 38.8 37.2004 39 37.0004 39.2Z" fill="#FAA61A"/>
<path d="M47.8999 34.2C47.5999 36.6 46.1999 38.3 44.3999 39.6C43.2999 40.4 42.0999 41 41.0999 41C38.9999 41 38.3999 40.2 38.7999 38.5C38.8999 38 39.0999 37.6 39.3999 37.2C39.5999 36.9 39.8999 36.7 40.2999 36.5C41.0999 36.3 41.4999 36.7 41.3999 37.4C41.3999 37.6 41.3999 37.8 41.3999 38C41.3999 38.6 41.7999 38.9 42.3999 38.8C44.0999 38.5 45.1999 37.4 46.0999 35.9C46.6999 34.8 47.0999 33.7 46.8999 32.4C46.8999 32.2 46.8999 32 47.0999 31.9C47.3999 31.8 47.5999 32 47.6999 32.3C47.9999 33 47.8999 33.6 47.8999 34.2Z" fill="#8298CE"/>
<path d="M47.9985 30.4999C47.6985 30.5999 47.3985 30.5999 47.0985 30.4999C46.8985 30.4999 47.0985 30.2999 47.0985 30.1999C47.2985 29.9999 47.3985 29.6999 47.3985 29.3999C47.5985 28.3999 47.1985 27.6999 46.1985 27.2999C45.3985 26.9999 44.5985 26.9999 43.6985 26.9999C43.3985 26.9999 42.9985 27.1999 42.8985 26.7999C42.7985 26.3999 43.0985 26.1999 43.3985 25.9999C43.5985 25.8999 43.8985 25.8999 43.8985 25.5999C43.7985 25.3999 43.4985 25.3999 43.1985 25.2999C42.5985 25.1999 41.9985 25.2999 41.3985 25.3999C41.1985 25.3999 41.0985 25.4999 40.8985 25.4999C40.1985 25.4999 39.9985 25.0999 40.2985 24.4999C40.4985 24.1999 40.4985 24.0999 40.0985 23.9999C39.0985 23.7999 38.4985 22.7999 38.6985 21.7999C38.6985 21.6999 38.6985 21.5999 38.8985 21.5999C40.1985 21.5999 41.3985 21.2999 42.6985 21.6999C44.4985 22.1999 45.6985 23.1999 46.5985 24.7999C46.7985 24.9999 46.8985 25.2999 46.8985 25.5999C46.6985 25.4999 46.5985 25.1999 46.4985 25.0999C45.6985 24.0999 44.5985 23.4999 43.2985 23.3999C43.2985 23.3999 43.2985 23.3999 43.1985 23.3999C43.1985 23.4999 43.2985 23.5999 43.3985 23.5999C44.8985 24.1999 46.1985 25.0999 47.0985 26.3999C47.6985 27.4999 48.0985 28.6999 48.0985 29.9999C48.0985 30.1999 48.1985 30.4999 47.9985 30.4999Z" fill="#00B6BD"/>
</svg>
