<svg width="76" height="76" viewBox="0 0 76 76" fill="none" xmlns="http://www.w3.org/2000/svg">
<path d="M38.9823 35.936H40.6144C41.5104 35.936 42.2464 35.2 42.2464 34.304C42.2464 33.408 41.5104 32.672 40.6144 32.672C39.7184 32.672 38.9823 33.408 38.9823 34.304V35.936ZM42.7584 40.576H40.6144C38.8863 40.576 37.4783 39.168 37.4783 37.44H36.9023V35.936H37.4783V34.304C37.4783 32.576 38.8863 31.168 40.6144 31.168C42.3424 31.168 43.7504 32.576 43.7504 34.304C43.7504 36.032 42.3424 37.44 40.6144 37.44H38.9823C38.9823 38.336 39.7184 39.04 40.6144 39.04H42.7584V40.576Z" fill="#474D56"/>
<path d="M51.7525 37.248H50.2485V34.304C50.2485 33.408 49.5125 32.672 48.6165 32.672C47.7205 32.672 46.9845 33.408 46.9845 34.304V37.248H45.4805V34.304C45.4805 32.576 46.8885 31.168 48.6165 31.168C50.3445 31.168 51.7525 32.576 51.7525 34.304V37.248Z" fill="#474D56"/>
<path d="M55.2403 31.328H53.7363V37.2481H55.2403V31.328Z" fill="#474D56"/>
<path d="M32.4886 32.576C31.5286 32.576 30.7606 33.344 30.7606 34.304C30.7606 35.264 31.5286 36.032 32.4886 36.032C33.4486 36.032 34.2166 35.264 34.2166 34.304C34.2166 33.344 33.4486 32.576 32.4886 32.576ZM32.4886 37.536C30.6966 37.536 29.2246 36.064 29.2246 34.272C29.2246 32.48 30.6966 31.008 32.4886 31.008C34.2806 31.008 35.7526 32.48 35.7526 34.272C35.7526 36.064 34.2806 37.536 32.4886 37.536Z" fill="#474D56"/>
<path d="M24.552 31.168C23.944 31.168 23.4 31.328 22.92 31.616V28H21.416V37.216H22.92V34.272C22.92 33.376 23.656 32.64 24.552 32.64C25.448 32.64 26.184 33.376 26.184 34.272V37.216H27.688V34.272C27.688 32.576 26.28 31.168 24.552 31.168Z" fill="#474D56"/>
<path d="M15.08 35.936H16.712C17.608 35.936 18.344 35.2 18.344 34.304C18.344 33.408 17.608 32.672 16.712 32.672C15.816 32.672 15.08 33.408 15.08 34.304V35.936ZM15.08 40.576H13.576V37.44H13V35.936H13.576V34.304C13.576 32.576 14.984 31.168 16.712 31.168C18.44 31.168 19.848 32.576 19.848 34.304C19.848 36.032 18.44 37.44 16.712 37.44H15.08V40.576Z" fill="#474D56"/>
<path d="M61.0645 34.2721L63.2085 31.328H61.3205L60.1365 32.9921L58.9525 31.328H57.0965L59.2085 34.2721L57.0645 37.2481H58.9525L60.1365 35.5841L61.3525 37.2481H63.2085L61.0645 34.2721Z" fill="#474D56"/>
<path d="M55.5608 29.088C55.5608 29.696 55.0808 30.176 54.4728 30.176C53.8648 30.176 53.3848 29.696 53.3848 29.088C53.3848 28.48 53.8648 28 54.4728 28C55.0808 28 55.5608 28.48 55.5608 29.088Z" fill="#474D56"/>
<path d="M61.8655 45.344H62.4415C62.4415 44.704 61.8975 44.288 61.1935 44.288C60.4575 44.288 59.9455 44.768 59.9455 45.376C59.9455 45.824 60.2015 46.176 60.6495 46.304C60.9695 46.4 61.3535 46.368 61.6095 46.464C61.7695 46.528 61.9295 46.656 61.9295 46.88C61.9295 47.2 61.6735 47.424 61.2575 47.424C60.8415 47.424 60.5535 47.2 60.5535 46.88H59.9775C59.9775 47.552 60.5215 48 61.2575 48C62.0255 48 62.5375 47.52 62.5375 46.848C62.5375 46.368 62.2815 46.048 61.8335 45.92C61.4815 45.824 61.1295 45.856 60.8735 45.76C60.6815 45.696 60.5855 45.536 60.5855 45.376C60.5855 45.088 60.8415 44.864 61.2255 44.864C61.5775 44.832 61.8335 45.024 61.8655 45.344ZM57.9295 47.904H58.5055V44.896H59.5935V44.32H56.8415V44.896H57.9295V47.904ZM54.3454 44.896H55.2415C55.6255 44.896 55.9135 45.152 55.9135 45.568C55.9135 45.952 55.6575 46.24 55.2415 46.24H54.3454V44.896ZM55.8495 47.904H56.5215L55.7215 46.656C56.1695 46.464 56.4575 46.048 56.4575 45.536C56.4575 44.8 55.9455 44.288 55.2095 44.288H53.7374V47.872H54.3135V46.752H55.0815L55.8495 47.904ZM50.0254 46.112C50.0254 45.376 50.5374 44.832 51.2734 44.832C52.0094 44.832 52.5214 45.376 52.5214 46.112C52.5214 46.848 52.0094 47.392 51.2734 47.392C50.5374 47.392 50.0254 46.848 50.0254 46.112ZM49.4494 46.112C49.4494 47.168 50.2174 47.968 51.3054 47.968C52.3934 47.968 53.1614 47.168 53.1614 46.112C53.1614 45.056 52.3934 44.256 51.3054 44.256C50.2174 44.256 49.4494 45.056 49.4494 46.112ZM48.3294 45.344H48.9054C48.9054 44.704 48.3614 44.288 47.6574 44.288C46.9214 44.288 46.4094 44.768 46.4094 45.376C46.4094 45.824 46.6654 46.176 47.1134 46.304C47.4334 46.4 47.8174 46.368 48.0734 46.464C48.2334 46.528 48.3934 46.656 48.3934 46.88C48.3934 47.2 48.1374 47.424 47.7214 47.424C47.3054 47.424 47.0174 47.2 47.0174 46.88H46.4414C46.4414 47.552 46.9854 48 47.7214 48C48.4894 48 49.0014 47.52 49.0014 46.848C49.0014 46.368 48.7454 46.048 48.2974 45.92C47.9454 45.824 47.5934 45.856 47.3374 45.76C47.1454 45.696 47.0494 45.536 47.0494 45.376C47.0494 45.088 47.3054 44.864 47.6894 44.864C48.0414 44.832 48.3294 45.024 48.3294 45.344ZM43.2094 47.904H45.9614V47.328H43.8174V46.4H45.0334V45.824H43.8174V44.896H45.9614V44.32H43.2094V47.904ZM40.3934 44.896H41.2894C41.6734 44.896 41.9614 45.152 41.9614 45.568C41.9614 45.952 41.7054 46.24 41.2894 46.24H40.3934V44.896ZM41.8974 47.904H42.6014L41.8014 46.688C42.2494 46.496 42.5374 46.08 42.5374 45.568C42.5374 44.832 42.0254 44.32 41.2894 44.32H39.8174V47.904H40.3934V46.784H41.1614L41.8974 47.904ZM36.1694 47.424C35.8174 47.424 35.5614 47.2 35.5614 46.88C35.5614 46.624 35.7214 46.432 35.9774 46.336L36.0414 46.304L36.7454 47.072C36.6174 47.296 36.4254 47.424 36.1694 47.424ZM36.2974 44.768C36.5534 44.768 36.7134 44.928 36.7134 45.152C36.7134 45.312 36.6174 45.44 36.4574 45.536L36.2014 45.664L36.0414 45.472C35.9454 45.376 35.9134 45.28 35.9134 45.152C35.8814 44.928 36.0414 44.768 36.2974 44.768ZM38.2174 47.904L37.4494 47.04L38.0894 45.952H37.4174L37.0334 46.624L36.5214 46.048L36.7134 45.952C37.0334 45.792 37.2574 45.504 37.2574 45.12C37.2574 44.608 36.8734 44.224 36.2974 44.224C35.7214 44.224 35.3374 44.608 35.3374 45.12C35.3374 45.344 35.4014 45.568 35.5934 45.76L35.6894 45.856C35.2734 46.048 35.0174 46.4 35.0174 46.848C35.0174 47.488 35.5294 47.936 36.2014 47.936C36.6174 47.936 36.9374 47.776 37.1934 47.456L37.5774 47.872H38.2174V47.904ZM32.6814 45.344H33.2574C33.2574 44.704 32.7134 44.288 32.0094 44.288C31.2734 44.288 30.7614 44.768 30.7614 45.376C30.7614 45.824 31.0174 46.176 31.4654 46.304C31.7854 46.4 32.1694 46.368 32.4254 46.464C32.5854 46.528 32.7454 46.656 32.7454 46.88C32.7454 47.2 32.4894 47.424 32.0734 47.424C31.6574 47.424 31.3694 47.2 31.3694 46.88H30.7934C30.7934 47.552 31.3374 48 32.0734 48C32.8414 48 33.3534 47.52 33.3534 46.848C33.3534 46.368 33.0974 46.048 32.6494 45.92C32.2974 45.824 31.9454 45.856 31.6894 45.76C31.4974 45.696 31.4014 45.536 31.4014 45.376C31.4014 45.088 31.6574 44.864 32.0414 44.864C32.3934 44.832 32.6814 45.024 32.6814 45.344ZM27.5934 47.904H30.3454V47.328H28.2014V44.32H27.6254V47.904H27.5934ZM24.2014 47.904H26.9534V47.328H24.8094V46.4H26.0254V45.824H24.8094V44.896H26.9534V44.32H24.2014V47.904ZM22.0254 47.904H22.6014V44.896H23.6574V44.32H20.9054V44.896H21.9934V47.904H22.0254ZM17.6094 46.112C17.6094 45.376 18.1214 44.832 18.8574 44.832C19.5934 44.832 20.1054 45.376 20.1054 46.112C20.1054 46.848 19.5934 47.392 18.8574 47.392C18.1534 47.392 17.6094 46.848 17.6094 46.112ZM17.0334 46.112C17.0334 47.168 17.8014 47.968 18.8894 47.968C19.9774 47.968 20.7454 47.168 20.7454 46.112C20.7454 45.056 19.9774 44.256 18.8894 44.256C17.8014 44.256 17.0334 45.056 17.0334 46.112ZM13.6094 47.904H14.1854V46.4H15.8174V47.904H16.3934V44.32H15.8174V45.824H14.1854V44.32H13.6094V47.904Z" fill="#474D56"/>
</svg>
