<svg width="76" height="76" viewBox="0 0 76 76" fill="none" xmlns="http://www.w3.org/2000/svg">
<path d="M46.835 48.2309C46.4469 48.2309 46.0997 48.1696 45.7627 48.2615C45.63 48.3023 45.5789 48.2206 45.5381 48.1287C45.4564 47.9551 45.3747 47.7917 45.293 47.6181C45.2317 47.5773 45.1806 47.5364 45.1602 47.465C45.15 47.4343 45.1398 47.4037 45.1296 47.373C45.0887 47.2811 45.0581 47.179 45.007 47.0871C44.9662 46.9646 44.9151 46.8318 44.8539 46.7195C44.7926 46.5969 44.7517 46.4744 44.7007 46.3416C44.67 46.2804 44.6496 46.2191 44.619 46.1578C44.5781 46.0353 44.5271 45.9127 44.4658 45.7902C44.4045 45.6676 44.3637 45.5451 44.3126 45.4225C44.282 45.3613 44.2616 45.3 44.2309 45.2387C44.1901 45.1162 44.139 44.9834 44.0777 44.8711C43.996 44.6975 43.945 44.5137 43.8633 44.3401C43.8224 44.2073 43.7714 44.0848 43.7101 43.9622C43.6488 43.8397 43.608 43.7069 43.5569 43.5844C43.5263 43.5231 43.5059 43.4618 43.4752 43.4006C43.4344 43.278 43.3833 43.1453 43.322 43.0329C43.2608 42.9104 43.2199 42.7776 43.1689 42.6551C43.1178 42.5325 43.077 42.41 43.0259 42.2874C42.9851 42.1853 42.934 42.0832 42.8829 41.9709C42.8727 41.9402 42.8625 41.9096 42.8523 41.879C42.8217 41.7666 42.7706 41.6645 42.7298 41.5624C42.6991 41.4807 42.6787 41.4092 42.6481 41.3377C42.597 41.2152 42.5255 41.1028 42.4847 40.9701C42.454 40.8578 42.403 40.7556 42.3519 40.6433C42.3111 40.5208 42.26 40.388 42.1987 40.2757C42.1579 40.194 42.1272 40.1225 42.0966 40.0408C42.0455 39.857 41.8719 39.7242 41.8515 39.52C41.8005 39.2749 41.6881 39.0502 41.586 38.8256C41.5452 38.6315 41.392 38.4988 41.3307 38.3047C41.3103 38.172 41.2694 38.0392 41.2082 37.9065C41.1673 37.7737 41.1162 37.6512 41.055 37.5286C41.0141 37.4469 40.9835 37.3754 40.9529 37.2938C40.8916 37.1201 40.8099 36.9465 40.7486 36.7729C40.718 36.7117 40.6976 36.6504 40.6669 36.5891C40.6261 36.4666 40.575 36.344 40.5137 36.2215C40.4729 36.15 40.4423 36.0683 40.4116 35.9866C40.381 35.8743 40.3299 35.7722 40.2789 35.67C40.238 35.5475 40.187 35.4147 40.1257 35.3024C40.0848 35.2309 40.0542 35.1492 40.0236 35.0675C39.9725 34.9041 39.8908 34.7612 39.8193 34.608C39.7785 34.4854 39.7274 34.3527 39.6661 34.2301C39.6253 34.1076 39.5844 33.985 39.5232 33.8625C39.513 33.8319 39.5027 33.8012 39.4823 33.7706C39.4517 33.6583 39.4108 33.5561 39.3496 33.454C39.3087 33.3825 39.2781 33.311 39.2577 33.2294C39.227 33.117 39.176 33.0149 39.1249 32.9128C39.0943 32.8413 39.0738 32.7596 39.033 32.6881C38.9819 32.586 38.9104 32.4941 38.8798 32.3818C38.8594 32.3001 38.839 32.2286 38.8083 32.1469C38.7777 32.0652 38.747 31.9937 38.7164 31.9222C38.6858 31.8201 38.6347 31.718 38.5837 31.6158C38.5428 31.5444 38.5122 31.4729 38.4917 31.3912C38.4713 31.3197 38.4407 31.238 38.4101 31.1665C38.3794 31.1052 38.359 31.044 38.3386 30.9827C38.2977 30.8704 38.2569 30.7682 38.1956 30.6661C38.1343 30.5436 38.0935 30.4108 38.0424 30.2883C37.9811 30.1657 37.9403 30.033 37.8892 29.9002C37.7565 29.6245 37.6544 29.3386 37.542 29.0628C37.4195 29.3386 37.2969 29.6143 37.1846 29.9002C37.1233 30.0228 37.0825 30.1657 37.0212 30.2883C36.9599 30.4108 36.9089 30.5334 36.8578 30.6559C36.817 30.758 36.7557 30.8602 36.7149 30.9725C36.6842 31.0338 36.6638 31.0848 36.6434 31.1563C36.6127 31.2278 36.5821 31.2993 36.5515 31.381C36.5208 31.4525 36.5004 31.5342 36.4698 31.6056C36.4187 31.7078 36.3676 31.8099 36.3268 31.912C36.2962 31.9835 36.2655 32.0652 36.2451 32.1367C36.194 32.2388 36.143 32.3409 36.1021 32.443C36.0715 32.5145 36.0511 32.5962 36.0204 32.6677C35.9694 32.7698 35.9285 32.8719 35.8877 32.9843C35.857 33.066 35.8264 33.1374 35.7856 33.2089C35.7345 33.311 35.6834 33.4132 35.6528 33.5153C35.6222 33.5868 35.5915 33.6685 35.5609 33.74C35.5303 33.8012 35.5098 33.8523 35.4792 33.9136C35.4486 33.9953 35.4281 34.0667 35.3975 34.1484C35.3158 34.3118 35.2647 34.4956 35.183 34.659C35.1116 34.7816 35.0707 34.9041 35.0299 35.0267C35.0094 35.0879 34.9788 35.1492 34.9482 35.2105C34.8869 35.3228 34.8358 35.4556 34.795 35.5781C34.7439 35.7007 34.6929 35.8232 34.6418 35.9458C34.6214 36.007 34.5907 36.0683 34.5601 36.1296C34.4988 36.2419 34.4478 36.3747 34.4069 36.4972C34.3559 36.6095 34.3048 36.7117 34.264 36.8138C34.2129 36.9363 34.172 37.0691 34.1108 37.1916C34.0495 37.3142 34.0189 37.4469 33.9576 37.5695C33.9065 37.6716 33.8555 37.7839 33.8146 37.8963C33.7431 38.0699 33.641 38.2333 33.59 38.4171C33.5593 38.4988 33.5287 38.5805 33.4878 38.6622C33.3959 38.9073 33.2632 39.1421 33.1815 39.3974C33.0998 39.571 33.0079 39.7446 32.9568 39.9285C32.8955 40.051 32.8445 40.1838 32.8036 40.3165C32.7321 40.4697 32.6505 40.6229 32.5994 40.7863C32.5892 40.8169 32.579 40.8475 32.5688 40.8782C32.4768 41.0416 32.4054 41.2152 32.3441 41.3888C32.2828 41.5113 32.2318 41.6339 32.1909 41.7666C32.1705 41.8279 32.1398 41.8892 32.1092 41.9504C32.0479 42.0628 31.9969 42.1955 31.956 42.3181C31.905 42.4202 31.8539 42.5325 31.8131 42.6347C31.762 42.7572 31.7212 42.89 31.6599 43.0125C31.6292 43.0942 31.5986 43.1657 31.568 43.2474C31.4863 43.4108 31.4046 43.5742 31.3535 43.758C31.3331 43.8193 31.3025 43.8805 31.2718 43.9418C31.2106 44.0541 31.1595 44.1767 31.1186 44.3094C31.0982 44.3707 31.0676 44.432 31.0369 44.4933C30.9757 44.6056 30.9348 44.7383 30.8838 44.8609C30.8327 44.9834 30.7816 45.106 30.7306 45.2285C30.7102 45.2898 30.6795 45.3511 30.6489 45.4123C30.5876 45.5247 30.5366 45.6472 30.4957 45.7698C30.4753 45.831 30.4446 45.8821 30.414 45.9434C30.3834 46.0148 30.363 46.0863 30.3323 46.168C30.3119 46.2293 30.2813 46.2804 30.2506 46.3416C30.1893 46.454 30.1485 46.5765 30.1077 46.6991C30.0872 46.7603 30.0566 46.8216 30.026 46.8727C29.9647 46.985 29.9136 47.1075 29.8728 47.2301C29.8523 47.2709 29.8319 47.322 29.8115 47.3628C29.7809 47.4241 29.7604 47.4854 29.7298 47.5467C29.7094 47.5773 29.6787 47.5875 29.6481 47.5977C29.6175 47.6386 29.597 47.6794 29.5664 47.7305C29.2294 48.4453 29.2396 48.4453 28.4431 48.3738C28.3001 48.3636 28.2593 48.3228 28.3205 48.19C28.341 48.1492 28.3614 48.0981 28.3818 48.047C28.4839 47.8224 28.5758 47.5977 28.678 47.3628C31.5986 40.6739 34.5193 33.985 37.4501 27.2961C37.4808 27.2145 37.5318 27.143 37.5931 27C40.5648 33.8114 43.5059 40.582 46.4674 47.3628C46.5899 47.6488 46.7125 47.9449 46.835 48.2309Z" fill="#221F20"/>
<path d="M60.0892 30.6661C59.7624 28.9914 58.7208 28.011 57.0256 27.8374C55.7184 27.7149 54.4011 27.817 53.0837 27.7863C52.7978 27.7761 52.8693 27.9702 52.8693 28.1233C52.8693 29.3998 52.8693 30.6763 52.8693 31.9529C52.8693 33.2294 52.8693 34.5059 52.8693 35.7824C52.8693 35.9662 52.8693 36.0887 53.1246 36.0887C54.1866 36.0683 55.2487 36.1194 56.3005 36.0377C58.0672 35.9049 59.2722 34.996 59.8952 33.3417C60.2117 32.4737 60.2628 31.5648 60.0892 30.6661ZM58.7208 33.4642C58.2919 34.7714 57.2502 35.5066 55.8001 35.5883C55.2793 35.619 54.7585 35.5781 54.2275 35.5577C53.9926 35.5475 53.9313 35.476 53.9313 35.2411C53.9415 34.128 53.9415 33.0251 53.9415 31.912C53.9415 30.8193 53.9415 29.7164 53.9415 28.6237C53.9415 28.3888 53.9824 28.2969 54.2479 28.2867C55.0751 28.2357 55.9023 28.2152 56.7192 28.3888C57.9957 28.6646 58.6595 29.3284 58.8842 30.6049C59.0578 31.5546 59.0374 32.5247 58.7208 33.4642Z" fill="#221F20"/>
<path d="M52.6342 44.0847C52.8793 44.0235 53.0529 43.9826 53.2265 43.9316C53.7065 43.7784 54.1558 43.5741 54.5234 43.2167C55.0953 42.6551 55.2689 41.9811 55.0749 41.2152C54.8911 40.4901 54.3294 40.1837 53.6554 40.0408C53.4307 39.9897 53.2061 39.9489 52.9712 39.9489C52.0623 39.9284 51.1535 39.9489 50.2548 39.908C49.8974 39.8978 49.8463 40.0203 49.8463 40.3369C49.8565 42.7061 49.8565 45.0855 49.8565 47.4547C49.8565 47.6998 49.7953 47.9857 49.9076 48.1594C50.0199 48.333 50.3365 48.1389 50.5509 48.2002C50.8879 48.3023 50.9186 48.1185 50.9186 47.8428C50.9084 46.7195 50.9186 45.5961 50.9084 44.4728C50.9084 44.1971 51.0105 44.1562 51.2454 44.1664C51.4394 44.1664 51.5109 44.2992 51.6028 44.4115C52.624 45.5859 53.5533 46.8318 54.4826 48.0777C54.9319 48.2921 55.3915 48.1491 55.851 48.1594C55.8612 48.1594 55.8612 48.1185 55.8612 48.0879C54.7787 46.7705 53.7167 45.4429 52.6342 44.0847ZM51.3883 43.7273C50.8879 43.7171 50.8879 43.7171 50.8879 43.2371V42.0117C50.8879 41.5624 50.8982 41.113 50.8777 40.6739C50.8675 40.4186 50.9594 40.3471 51.2045 40.3471C51.7049 40.3573 52.2053 40.3063 52.6955 40.388C53.3388 40.4901 53.8392 40.7862 53.9822 41.4705C54.1354 42.1853 53.972 42.8184 53.3593 43.278C52.8691 43.6456 52.287 43.7171 51.6947 43.7375C51.5926 43.7273 51.4905 43.7273 51.3883 43.7273Z" fill="#221F20"/>
<path d="M65.1554 39.9898C64.318 40.7965 63.5011 41.5726 62.6943 42.359C62.3471 42.696 62.0203 43.0534 61.6629 43.3802C61.4587 43.564 61.4995 43.6763 61.6629 43.8703C62.8271 45.1877 64.0423 46.4642 65.135 47.853C65.2167 47.9552 65.3495 48.0369 65.3495 48.2309C64.9512 48.2105 64.5631 48.1798 64.1751 48.2309C64.0321 48.2513 63.981 48.139 63.9096 48.0471C62.9088 46.6889 61.7446 45.4736 60.6621 44.1767C60.5906 44.095 60.5192 43.952 60.3966 43.9929C60.2537 44.0337 60.3251 44.1971 60.3251 44.2992C60.3251 45.4941 60.3149 46.6991 60.3251 47.8939C60.3251 48.1594 60.2639 48.282 59.9881 48.2003C59.9473 48.19 59.9167 48.19 59.8758 48.19C59.6716 48.1594 59.4163 48.3228 59.2937 48.1696C59.1507 48.0062 59.2529 47.7305 59.2427 47.5058C59.2427 45.1162 59.2427 42.7368 59.2324 40.3472C59.2324 40.0306 59.2631 39.8979 59.6409 39.9285C60.3149 39.9898 60.3251 39.9591 60.3251 40.6331C60.3251 41.542 60.3251 42.4407 60.3251 43.3495C60.3251 43.4619 60.2639 43.6048 60.3864 43.6661C60.5192 43.7274 60.6213 43.6048 60.7132 43.5231C61.5097 42.8083 62.2246 42.0015 62.9803 41.2458C63.2254 41.0008 63.4909 40.7761 63.6951 40.5004C64.0525 40.0102 64.5019 39.8059 65.1554 39.9898Z" fill="#221F20"/>
<path d="M26.6856 41.2969C26.5324 40.4391 25.8789 40.1429 25.113 40.0204C23.9488 39.8263 22.7744 39.9285 21.6 39.908C21.3447 39.8978 21.406 40.0918 21.406 40.2246C21.406 41.5113 21.406 42.798 21.406 44.095C21.406 45.2285 21.406 46.362 21.406 47.5058C21.406 47.7305 21.3141 48.0062 21.4468 48.1696C21.5694 48.3228 21.8349 48.1594 22.0289 48.19C22.08 48.2002 22.131 48.2002 22.1821 48.2104C22.4272 48.2717 22.4885 48.1696 22.4885 47.9347C22.4783 47.0156 22.4885 46.0965 22.4885 45.1774C22.4885 44.4115 22.4885 44.4115 23.2748 44.432C24.2143 44.4524 25.113 44.2584 25.8891 43.7273C26.7469 43.135 26.849 42.2466 26.6856 41.2969ZM23.9896 43.8805C23.5709 43.9622 23.1522 43.9622 22.7336 43.952C22.5293 43.952 22.4783 43.8601 22.4783 43.6763C22.4885 43.1657 22.4783 42.6551 22.4783 42.1445C22.4783 41.6543 22.4987 41.1743 22.468 40.6944C22.4578 40.4288 22.5497 40.3676 22.7948 40.3676C23.3054 40.388 23.816 40.3471 24.3266 40.4084C25.0925 40.5105 25.5419 40.9905 25.6031 41.7462C25.695 42.8797 25.113 43.6558 23.9896 43.8805Z" fill="#221F20"/>
<path d="M11 27.7966C11.3778 27.8374 11.6842 27.8681 11.9804 27.8068C12.2254 27.7557 12.2357 27.9702 12.2867 28.1131C12.9914 29.9922 13.7266 31.8508 14.4925 33.6991C14.6049 33.9749 14.707 34.2404 14.8295 34.5161C14.8704 34.608 14.8704 34.751 14.9827 34.7612C15.1052 34.7714 15.1257 34.6284 15.1665 34.5467C15.3708 34.1076 15.5954 33.6787 15.769 33.2192C16.4124 31.5648 17.0762 29.9207 17.648 28.2459C17.7502 27.9293 17.8829 27.7353 18.2608 27.8374C18.3833 27.8681 18.5365 27.8272 18.6999 27.817C18.2403 28.8382 17.791 29.839 17.3621 30.8398C16.6575 32.4839 15.9528 34.1178 15.3095 35.7824C15.2584 35.9152 15.2789 36.1092 15.0133 36.0888C14.7887 36.0785 14.6559 36.0377 14.5538 35.813C13.5428 33.6583 12.6135 31.4525 11.6638 29.2671C11.4493 28.7974 11.2349 28.3276 11 27.7966Z" fill="#221F20"/>
<path d="M32.8937 27.7761C31.7602 30.2883 30.6981 32.7289 29.7075 35.2105C29.6258 35.4147 29.5544 35.619 29.4727 35.813C29.4216 35.9355 29.4318 36.1193 29.1969 36.0989C28.9825 36.0887 28.8395 36.0683 28.7272 35.8334C27.6345 33.5051 26.6439 31.1154 25.6125 28.7667C25.4797 28.4705 25.347 28.1642 25.1836 27.8272C25.5512 27.8169 25.8882 27.8578 26.2252 27.8067C26.409 27.7761 26.4193 27.9803 26.4601 28.1029C27.0013 29.4815 27.5324 30.8601 28.0736 32.2388C28.3698 32.9945 28.6863 33.7502 29.0029 34.5058C29.0438 34.5978 29.0335 34.7611 29.1867 34.7611C29.2991 34.7509 29.3093 34.608 29.3501 34.5263C30.2181 32.7187 30.8717 30.8193 31.5763 28.9505C31.6172 28.8586 31.6376 28.7565 31.6785 28.6645C31.7806 28.3888 31.8316 28.0416 32.0257 27.868C32.1993 27.6944 32.5465 27.8884 32.8937 27.7761Z" fill="#221F20"/>
<path d="M44.6391 31.912C44.6391 30.6661 44.6493 29.4101 44.6391 28.1642C44.6391 27.8987 44.6595 27.7353 44.9863 27.8374C45.0068 27.8476 45.0374 27.8374 45.0578 27.8476C45.2723 27.8987 45.5582 27.7047 45.6705 27.868C45.7829 28.0314 45.7216 28.3072 45.7216 28.5318C45.7216 30.7376 45.7318 32.9434 45.7114 35.1595C45.7114 35.4454 45.7727 35.5271 46.0688 35.5271C47.0287 35.5067 47.9785 35.4965 48.9384 35.3943C49.0814 35.3739 49.2652 35.3331 49.1937 35.5679C49.1426 35.7415 49.4081 36.0888 48.9895 36.0888C47.6108 36.099 46.2322 36.0888 44.8536 36.099C44.5983 36.099 44.6391 35.9458 44.6391 35.7926C44.6391 34.4957 44.6391 33.1987 44.6391 31.912Z" fill="#221F20"/>
<path d="M21.4069 31.9324C21.4069 30.6559 21.4069 29.3794 21.4069 28.1131C21.4069 27.8782 21.4375 27.7352 21.7234 27.8272C21.8256 27.8578 21.9583 27.868 22.0604 27.8374C22.4281 27.7352 22.4995 27.8782 22.4995 28.2254C22.4893 30.7274 22.4893 33.2191 22.4995 35.7211C22.4995 36.0274 22.4485 36.1806 22.1115 36.0989C21.8868 36.0479 21.5805 36.2215 21.4681 36.0581C21.3558 35.8845 21.4171 35.5883 21.4171 35.3534C21.4069 34.1995 21.4069 33.0659 21.4069 31.9324Z" fill="#221F20"/>
<path d="M65.2769 31.9426C65.2769 33.1885 65.2667 34.4446 65.2871 35.6904C65.2871 35.9968 65.2565 36.1908 64.8888 36.0887C64.8684 36.0785 64.8378 36.0887 64.8174 36.0887C64.2148 36.0683 64.2148 36.0683 64.2148 35.4454C64.2148 33.0251 64.2148 30.6048 64.2148 28.1744C64.2148 27.8884 64.2455 27.725 64.5825 27.8374C64.6438 27.8578 64.705 27.8476 64.7765 27.8476C65.2973 27.8476 65.2973 27.8476 65.2973 28.3582C65.2769 29.5428 65.2769 30.7478 65.2769 31.9426Z" fill="#221F20"/>
<path d="M54.4629 48.0879C54.9224 48.2105 55.382 48.1696 55.8415 48.0981C55.9028 48.139 55.9538 48.2207 55.8619 48.2207C55.433 48.2411 55.0041 48.2309 54.565 48.2207C54.514 48.2207 54.4731 48.1492 54.4629 48.0879Z" fill="#221F20"/>
<path d="M53.8494 28.4195C53.8494 30.7478 53.8494 33.0864 53.8494 35.4147C53.8392 35.4147 53.829 35.4147 53.8086 35.4147C53.8086 33.0762 53.8086 30.7376 53.8086 28.399C53.829 28.4093 53.8392 28.4093 53.8494 28.4195Z" fill="#221F20"/>
<path d="M54.8099 27.9089C56.2086 27.9089 57.3425 27.8997 57.3425 27.8884C57.3425 27.8771 56.2086 27.868 54.8099 27.868C53.4112 27.868 52.2773 27.8771 52.2773 27.8884C52.2773 27.8997 53.4112 27.9089 54.8099 27.9089Z" fill="#221F20"/>
<path d="M64.2969 35.956C64.2969 33.2804 64.2969 30.6048 64.2969 27.9395C64.3071 27.9395 64.3173 27.9395 64.3377 27.9395C64.3377 30.615 64.3377 33.2804 64.3377 35.956C64.3275 35.956 64.3071 35.956 64.2969 35.956Z" fill="#221F20"/>
<path d="M29.8105 47.3628H45.1593L37.5104 29.0832L29.8105 47.3628Z" fill="url(#paint0_linear_903_733)"/>
<defs>
<linearGradient id="paint0_linear_903_733" x1="37.4849" y1="29.0832" x2="37.4849" y2="47.3628" gradientUnits="userSpaceOnUse">
<stop stop-color="#53B2B8"/>
<stop offset="0.596316" stop-color="#C6D96A"/>
<stop offset="1" stop-color="#E8FBDF"/>
</linearGradient>
</defs>
</svg>
