<svg width="76" height="76" viewBox="0 0 76 76" fill="none" xmlns="http://www.w3.org/2000/svg">
<path d="M45.0624 27.0668C45.0624 27.0668 45.4826 27.5395 45.7452 28.0648C45.7977 28.2749 45.7715 28.6951 45.6664 28.9315C45.6664 28.9315 45.5351 29.2729 45.5088 29.5618C45.1937 29.2729 44.8785 28.7476 44.7472 28.3537C44.7209 27.6183 45.0624 27.0668 45.0624 27.0668ZM41.5431 23.994C41.6744 23.8364 41.6219 23.4425 41.6219 23.4425C41.8845 23.4425 41.9633 23.7051 42.2259 23.9152C42.3047 23.994 42.4886 23.994 43.0138 23.994C43.3027 24.0465 43.8805 24.0991 44.1957 24.4405C44.1957 24.4405 43.8543 24.5193 43.4866 24.6243C43.0664 24.7819 42.7775 24.9132 42.7512 25.386C42.7512 25.386 43.0401 25.885 43.2502 26.2264C43.2502 26.2264 43.0401 26.1739 42.8562 26.0951C42.7512 26.0688 42.6724 26.2001 42.5674 26.3314C42.5674 26.3314 42.4886 25.8062 42.2522 25.4647C42.0158 25.1759 41.7795 25.1759 41.5168 25.2546C41.438 25.2809 40.7814 25.6749 40.3087 26.0688C40.4926 24.4405 41.333 24.388 41.5431 23.994ZM41.6219 29.0103C42.0946 29.1679 42.436 29.5093 42.6461 29.8244C42.5411 28.4588 43.3815 27.8022 43.3815 27.8022C43.3815 27.8022 43.6967 27.9072 44.0906 28.879C44.0906 28.879 44.2482 29.982 44.0118 30.875C44.0118 30.875 43.2502 32.0305 42.2259 32.477C42.2259 32.477 41.9896 32.6346 41.4643 32.6609C41.333 32.1881 41.5693 31.4002 42.0158 30.8224C41.9896 30.8224 41.7007 30.6649 41.1754 30.6123C40.8077 30.481 40.0198 29.9032 39.5208 29.3517C39.836 29.2729 40.8602 28.7739 41.6219 29.0103ZM30.6964 25.8062C31.7206 24.9132 32.7186 24.0203 35.2399 23.3112C36.343 23.2061 38.3127 23.2849 38.9955 23.6263C37.446 24.9132 35.7127 25.8324 35.0823 25.9637C34.8197 26.1476 34.7672 26.3052 34.7672 26.3052C35.1086 26.4102 36.5531 26.1213 36.8682 25.9637C36.9208 26.2789 36.3955 27.1719 36.3955 27.1719C34.8197 26.988 34.452 27.3032 34.452 27.3032C34.4783 27.5395 35.9753 28.0385 36.8157 28.4588C37.7612 29.0103 38.3127 29.378 39.2057 31.0851C39.2057 31.2952 35.5288 30.0345 33.2177 28.6426C32.3247 27.7234 31.1429 26.8042 30.7752 26.7254C30.355 26.4365 30.0135 26.4627 29.6196 26.384C29.6196 26.384 29.7772 26.1213 30.6964 25.8062ZM34.452 32.4245C34.1106 32.6871 33.5591 33.0286 32.9025 33.2124C32.4035 33.3174 31.957 33.2387 31.5631 32.8184C31.2479 32.5558 31.0903 32.3982 30.4337 32.0568C30.3287 31.9518 30.5913 31.9255 30.5913 31.9255C30.5913 31.9255 30.9065 31.7154 31.1166 31.7679L31.353 31.8992C31.4843 32.0568 31.7732 31.8992 31.7994 31.873C32.0883 31.6366 32.7449 31.0325 32.7449 31.0325C32.9813 30.9538 33.6379 30.9538 33.9268 30.7699C33.9793 30.9275 33.6379 31.9255 33.4278 32.2407C33.5591 32.3457 34.2419 32.372 34.452 32.4245ZM35.1086 35.9963C35.0298 36.5741 34.846 37.0731 34.5045 37.362C34.2157 37.7034 33.6116 38.3075 33.7167 38.9115C33.0863 38.2024 32.1934 37.7297 31.0115 37.1256C30.1974 36.4165 29.8822 36.1013 29.5933 34.8407C29.961 34.7882 30.3024 34.8407 31.4843 35.4973C31.8257 35.6811 32.0883 35.7337 32.1671 35.7074C32.1934 35.366 32.1671 35.1033 32.2722 34.8144C32.5085 34.4468 32.7187 34.2367 32.7187 34.2367C32.7187 34.2367 33.4803 34.6569 33.7954 35.7862C34.1106 35.5761 34.5571 35.0508 34.6359 34.8932C34.846 34.6306 35.1086 34.4468 35.2399 34.4468C35.2137 34.8407 35.1086 35.366 35.1086 35.9963ZM39.1006 37.4145C38.6804 37.4145 38.1551 37.3095 38.1551 37.3095C38.339 36.9418 38.8642 36.4428 39.1531 36.2852C38.7067 36.1276 38.2339 36.0226 37.7087 35.3922C37.0783 34.8144 36.7369 34.4993 36.7369 34.4993C36.7369 34.4993 37.6299 34.2367 38.6541 34.2629C39.3107 34.5256 40.335 35.6549 40.834 36.0226C40.9653 36.1276 41.1754 36.2589 40.939 36.4165C40.5451 36.5478 40.3612 36.4953 40.1511 36.7317C39.6784 37.1256 39.5208 37.4408 39.1006 37.4145ZM44.8785 35.0246C44.6684 35.2872 43.6967 35.5498 43.6967 35.5498C44.0906 35.8387 44.7472 36.3377 44.8523 36.9155C44.9573 37.467 44.9048 38.1499 44.9048 38.1499C44.1694 37.9135 43.3027 37.5458 42.9613 36.7842C42.5148 35.97 42.5148 35.2609 42.5148 35.2609C42.5148 35.2609 42.8825 35.2084 43.329 34.4993C43.8017 33.8952 44.0906 33.5801 44.9573 33.4225C45.4038 33.3174 45.6927 33.2649 45.6927 33.2649C45.5876 33.8952 45.3513 34.7357 44.8785 35.0246ZM39.7834 40.3297C39.8885 40.0408 41.7269 35.8912 41.9896 35.1033C41.9896 35.1033 42.5411 34.0528 43.5654 32.2669C44.0118 31.3214 44.1957 31.1901 44.4846 30.7962C46.6382 29.2729 46.7957 28.6426 46.7957 28.6426C46.8483 28.5901 46.927 28.485 47.0058 28.6163C47.0058 28.6163 46.9533 28.984 46.9008 29.378C46.9008 29.378 46.5856 29.6931 46.0078 30.2972C46.0078 30.2972 45.1412 30.8487 44.1957 32.1356C44.1957 32.1356 43.434 33.37 42.8825 34.3154C42.5936 34.6831 42.0421 35.9963 41.6219 37.2307C41.2804 38.5701 40.6501 39.8832 40.5188 40.356H45.0361C46.428 40.356 47.5836 39.1741 47.5836 37.7559V23.6001C47.5836 22.1556 46.428 21 45.0361 21H30.8014C29.4095 21 28.2539 22.1556 28.2539 23.6001V37.7297C28.2539 39.1479 29.4095 40.3297 30.8014 40.3297H39.7834Z" fill="#265550"/>
<path d="M18.6158 50.2834H12.6016V51.1501H17.6178V51.8855H12.6016V53.33C12.6016 53.6451 12.6541 53.8815 12.7591 54.0128C12.8642 54.1441 13.0743 54.1967 13.3632 54.1967H18.7734V53.33H13.8622C13.8359 53.33 13.8097 53.33 13.7834 53.3037C13.7571 53.3037 13.7571 53.2775 13.7571 53.2249V52.7259H18.5896C18.6421 52.7259 18.6946 52.6997 18.7209 52.6734C18.7472 52.6471 18.7734 52.5946 18.7734 52.5158V50.4673C18.7734 50.4148 18.7472 50.3622 18.7209 50.3097C18.7209 50.3097 18.6684 50.2834 18.6158 50.2834Z" fill="#265550"/>
<path d="M12.8122 49.8107H14.0203V48.6026H15.8324V47.8935H11V48.6026H12.8122V49.8107Z" fill="#265550"/>
<path d="M12.1552 47.1319C12.3128 47.2895 12.4967 47.3945 12.7068 47.4733C12.9169 47.5521 13.1533 47.6046 13.4159 47.6046C13.6785 47.6046 13.8886 47.5521 14.125 47.4733C14.3351 47.3945 14.5452 47.2895 14.7028 47.1319C14.8604 46.9743 14.9917 46.8167 15.0967 46.6066C15.2018 46.3965 15.228 46.1864 15.228 45.95C15.228 45.7137 15.1755 45.5036 15.0967 45.3197C14.9917 45.1359 14.8866 44.952 14.7028 44.7945C14.5452 44.6369 14.3614 44.5318 14.125 44.453C13.9149 44.3742 13.6785 44.3217 13.4159 44.3217C13.1533 44.3217 12.9169 44.3742 12.7068 44.453C12.4967 44.5318 12.3128 44.6369 12.1552 44.7945C11.9977 44.952 11.8664 45.1096 11.7876 45.3197C11.7088 45.5036 11.6562 45.7399 11.6562 45.95C11.6562 46.1864 11.7088 46.3965 11.7876 46.6066C11.8664 46.8167 11.9977 46.9743 12.1552 47.1319ZM12.9169 45.3985C13.0482 45.2409 13.2058 45.1621 13.4159 45.1621C13.5997 45.1621 13.7573 45.2409 13.8886 45.3985C14.0199 45.5561 14.0987 45.7399 14.0987 45.9763C14.0987 46.2127 14.0199 46.3965 13.8886 46.5541C13.7573 46.7117 13.5997 46.7905 13.4159 46.7905C13.2058 46.7905 13.0482 46.7117 12.9169 46.5804C12.7856 46.4228 12.733 46.2389 12.733 46.0026C12.733 45.7399 12.8118 45.5561 12.9169 45.3985Z" fill="#265550"/>
<path d="M16.0964 45.1096C16.1489 45.1884 16.1752 45.2672 16.1752 45.3722V48.9178H14.7832V49.4693H16.1752V49.8107H17.2257V44.6106H15.7812V45.0045H15.8075C15.9388 45.0045 16.0176 45.0308 16.0964 45.1096Z" fill="#265550"/>
<path d="M17.3563 45.0045C17.5139 45.0045 17.619 45.0308 17.6715 45.1096C17.724 45.1884 17.7503 45.2672 17.7503 45.3722V49.8107H18.8008V44.6106H17.3301V45.0045H17.3563Z" fill="#265550"/>
<path d="M36.6334 50.2834H30.6191V51.1501H35.6354V51.8855H30.6191V53.33C30.6191 53.6451 30.6717 53.8815 30.7767 54.0128C30.8818 54.1441 31.0919 54.1967 31.3808 54.1967H36.791V53.33H31.8798C31.8535 53.33 31.8272 53.33 31.801 53.3037C31.7747 53.3037 31.7747 53.2775 31.7747 53.2249V52.7259H36.6071C36.6597 52.7259 36.7122 52.6997 36.7647 52.6734C36.791 52.6471 36.8173 52.5946 36.8173 52.5158V50.4673C36.8173 50.4148 36.791 50.3622 36.7647 50.3097C36.7385 50.3097 36.6859 50.2834 36.6334 50.2834Z" fill="#265550"/>
<path d="M31.7995 49.6794C32.0622 49.6794 32.3511 49.6269 32.5874 49.5218C32.8501 49.4168 33.0602 49.2592 33.244 49.0754C33.4278 48.8915 33.5854 48.6552 33.6905 48.3925C33.7955 48.1299 33.8481 47.8673 33.8481 47.5521C33.8481 47.342 33.8218 47.1319 33.743 46.948C33.6905 46.7642 33.6117 46.5804 33.5066 46.3965H34.5834V45.5036H32.4036V44.4005H30.7753V44.7682H30.9328C30.9854 44.7682 31.0379 44.7945 31.0904 44.8732C31.1429 44.9258 31.1692 45.0046 31.1692 45.0834V45.5298H29.0156V46.4228H30.0662C29.9611 46.5804 29.8823 46.7642 29.8035 46.9743C29.751 47.1581 29.7247 47.3683 29.7247 47.5784C29.7247 47.8673 29.7773 48.1562 29.8823 48.4188C29.9874 48.6814 30.1449 48.8915 30.3288 49.1016C30.5126 49.2855 30.7227 49.443 30.9854 49.5481C31.2743 49.6269 31.5369 49.6794 31.7995 49.6794ZM31.2217 46.7905C31.4056 46.5541 31.5894 46.449 31.8258 46.449C32.0622 46.449 32.2723 46.5541 32.4298 46.7905C32.5874 47.0268 32.6662 47.2895 32.6662 47.6046C32.6662 47.9198 32.5874 48.1824 32.4036 48.4188C32.2197 48.6552 32.0359 48.7602 31.7995 48.7602C31.5632 48.7602 31.353 48.6552 31.1955 48.4188C31.0379 48.1824 30.9328 47.9198 30.9328 47.6046C30.9591 47.2895 31.0379 47.0006 31.2217 46.7905Z" fill="#265550"/>
<path d="M35.0566 45.0571H35.2405C35.3718 45.0571 35.4769 45.1096 35.5294 45.2147C35.6082 45.3197 35.6344 45.4248 35.6344 45.5298V49.837H36.8163V44.6106H35.0566V45.0571Z" fill="#265550"/>
<path d="M25.8914 45.0571H26.0752C26.2065 45.0571 26.3116 45.1096 26.3641 45.2147C26.4166 45.3197 26.4691 45.4248 26.4691 45.5298V50.94H21.663C21.6367 50.94 21.6105 50.94 21.5842 50.9138C21.5842 50.9138 21.5579 50.8875 21.5579 50.835V49.1279H24.8671C24.9196 49.1279 24.9721 49.1016 25.0247 49.0753C25.0509 49.0491 25.0772 48.9966 25.0772 48.9178V45.7662C25.0772 45.7137 25.0509 45.6611 25.0247 45.6086C24.9984 45.5561 24.9459 45.5298 24.8934 45.5298H20.4023V46.3965H23.9216V48.2612H20.4023V50.9138C20.4023 51.2289 20.4549 51.4653 20.5599 51.5966C20.665 51.7279 20.8751 51.7805 21.164 51.7805H26.4954V54.1967H27.6773V44.6106H25.9176V45.0571H25.8914Z" fill="#265550"/>
<path d="M43.9343 45.0571H44.1182C44.2495 45.0571 44.3545 45.1096 44.4071 45.2147C44.4596 45.3197 44.5121 45.4248 44.5121 45.5298V50.94H39.7059C39.6797 50.94 39.6534 50.94 39.6272 50.9138C39.6009 50.9138 39.6009 50.8875 39.6009 50.835V49.1279H42.9101C42.9626 49.1279 43.0151 49.1016 43.0676 49.0753C43.0939 49.0491 43.1202 48.9966 43.1202 48.9178V45.7662C43.1202 45.7137 43.0939 45.6611 43.0676 45.6086C43.0414 45.5561 42.9888 45.5298 42.9363 45.5298H38.4453V46.3965H41.9646V48.2612H38.4453V50.9138C38.4453 51.2289 38.4978 51.4653 38.6029 51.5966C38.7079 51.7279 38.9181 51.7805 39.207 51.7805H44.5384V54.1967H45.7202V44.6106H43.9606V45.0571H43.9343Z" fill="#265550"/>
<path d="M54.7272 44.6106H52.9676V45.0571H53.1514C53.2827 45.0571 53.3878 45.1096 53.4403 45.2147C53.4928 45.3197 53.5454 45.4248 53.5454 45.5298V50.94H51.7857V46.3702H52.7049V45.5298H47.2422V46.3702H48.2139V50.9138H47.2422V51.7805H53.5454V54.1967H54.7272V48.7602H55.9878V47.8935H54.7272V44.6106ZM50.6039 50.9138H49.422V46.3702H50.6039V50.9138Z" fill="#265550"/>
<path d="M63.7897 52.3319V48.7864C63.7897 48.7339 63.7897 48.7076 63.7897 48.6551V45.7399C63.7897 45.6873 63.7634 45.6348 63.7372 45.6086C63.7109 45.556 63.6584 45.5298 63.6059 45.5298H57.3027V46.3965H62.424C62.5028 46.3965 62.5553 46.4227 62.5816 46.449C62.6079 46.4752 62.6079 46.5278 62.6079 46.6066V48.7601H57.3027V49.6268H62.6079V52.3319H56.3047V53.1986H64.7877V52.3319H63.7897Z" fill="#265550"/>
</svg>
