<svg width="53" height="53" viewBox="0 0 53 53" fill="none" xmlns="http://www.w3.org/2000/svg">
<circle cx="26.5" cy="26.5" r="26.5" fill="#474D56"/>
<path fill-rule="evenodd" clip-rule="evenodd" d="M36.9881 16.0134C37.309 16.3341 37.5635 16.7149 37.7371 17.134C37.9107 17.5531 38.0001 18.0023 38.0001 18.456C38.0001 18.9096 37.9107 19.3588 37.7371 19.7779C37.5635 20.197 37.309 20.5778 36.9881 20.8986L21.5184 36.3683L15.0049 37.9966L16.6333 31.5743L32.1095 16.0199C32.7195 15.4069 33.5377 15.0457 34.4016 15.008C35.2656 14.9703 36.1121 15.2589 36.7732 15.8164L36.9881 16.0134Z" stroke="white" stroke-width="1.62839" stroke-linecap="round" stroke-linejoin="round"/>
<path d="M24.7747 38.0013H37.8072" stroke="white" stroke-width="1.62907" stroke-linecap="round" stroke-linejoin="round"/>
<path d="M34.5491 20.0815L36.1781 21.7106" stroke="white" stroke-width="1.62907" stroke-linecap="round" stroke-linejoin="round"/>
</svg>
