<svg width="21" height="24" viewBox="0 0 21 24" fill="none" xmlns="http://www.w3.org/2000/svg">
<path d="M14.8354 3.18421L14.8354 3.18419L14.8332 3.18323C13.4388 2.57835 12.0927 1.86769 10.8068 1.05746L10.8068 1.05745L10.8053 1.05655L10.4387 0.829881C10.3729 0.789228 10.2896 0.790119 10.2247 0.832169L9.86579 1.06481C8.58016 1.87476 7.23447 2.58519 5.84049 3.1899L5.84049 3.18989L5.8386 3.19073C4.41955 3.82385 2.95191 4.34188 1.44984 4.73979L0.950885 4.8662C0.862148 4.88868 0.8 4.96853 0.8 5.06007V10.6202C0.8 15.1596 3.09594 18.2772 5.39026 20.2568C6.53709 21.2463 7.68586 21.9538 8.55324 22.4162C8.98714 22.6476 9.35122 22.8178 9.61022 22.9316C9.73974 22.9884 9.84303 23.0312 9.91567 23.0604C9.952 23.075 9.98064 23.0862 10.0011 23.0941C10.017 23.1003 10.0384 23.1084 10.035 23.1071L10.035 23.1071L10.0403 23.109L10.2669 23.189C10.31 23.2042 10.357 23.2042 10.4001 23.189L10.6144 23.1133C10.6189 23.1122 10.623 23.1111 10.6263 23.1101C10.636 23.1073 10.6469 23.1038 10.6581 23.1001C10.681 23.0924 10.7114 23.0815 10.7484 23.0675C10.8227 23.0395 10.9271 22.9978 11.0571 22.9421C11.3173 22.8305 11.682 22.6618 12.1162 22.4314C12.9843 21.971 14.1329 21.2629 15.2794 20.2716C17.5729 18.2886 19.867 15.1627 19.867 10.6202V5.06007C19.867 4.96853 19.8049 4.88868 19.7161 4.8662L19.2186 4.74017C19.2181 4.74006 19.2177 4.73995 19.2173 4.73984C17.7174 4.33944 16.252 3.81923 14.8354 3.18421ZM18.1336 10.6202C18.1336 14.219 16.5001 16.7715 14.6953 18.4974C12.9526 20.1641 11.0551 21.0544 10.3335 21.3572C9.612 21.0544 7.71447 20.1625 5.97169 18.495C4.16689 16.7681 2.53336 14.2156 2.53336 10.6202V6.24366C3.89798 5.84436 5.23442 5.35425 6.53374 4.77657C7.84193 4.21103 9.11128 3.55969 10.3335 2.82682C11.5557 3.5597 12.8251 4.21104 14.1333 4.77657C15.4326 5.35425 16.769 5.84436 18.1336 6.24366V10.6202Z" fill="#6195CF" stroke="#6195CF" stroke-width="0.4" stroke-linejoin="round"/>
<path d="M5.72612 11.106C5.72248 11.1024 5.7187 11.0989 5.71479 11.0955C5.54899 10.9535 5.33573 10.8793 5.1176 10.8878C4.89948 10.8962 4.69257 10.9866 4.53822 11.141C4.38387 11.2953 4.29345 11.5022 4.28502 11.7204C4.2766 11.9385 4.35079 12.1517 4.49277 12.3175C4.49612 12.3215 4.49962 12.3252 4.50326 12.3289L8.50333 16.3289C8.58036 16.406 8.70486 16.4072 8.78338 16.3317L16.0702 9.3249L16.071 9.32413C16.2363 9.16339 16.331 8.94354 16.3343 8.71297C16.3375 8.48239 16.249 8.25997 16.0883 8.09463C15.9275 7.92929 15.7077 7.83458 15.4771 7.83134C15.2465 7.82809 15.0241 7.91657 14.8588 8.07732L8.68686 14.0668L5.72612 11.106Z" fill="#6195CF" stroke="#6195CF" stroke-width="0.4" stroke-linejoin="round"/>
</svg>
